<?xml version="1.0" encoding="UTF-8" standalone="no"?>
<svg
   xmlns:dc="http://purl.org/dc/elements/1.1/"
   xmlns:cc="http://creativecommons.org/ns#"
   xmlns:rdf="http://www.w3.org/1999/02/22-rdf-syntax-ns#"
   xmlns:svg="http://www.w3.org/2000/svg"
   xmlns="http://www.w3.org/2000/svg"
   xmlns:sodipodi="http://sodipodi.sourceforge.net/DTD/sodipodi-0.dtd"
   xmlns:inkscape="http://www.inkscape.org/namespaces/inkscape"
   width="100%"
   viewBox="0 0 1919.9999 1080.0003"
   id="btn_gamectrl_full"
   classe="btn_gamectrl_full"
   version="1.1"
   inkscape:version="0.91 r13725"
   sodipodi:docname="btn_instructions.svg">
  <metadata
     id="metadata55">
    <rdf:RDF>
      <cc:Work
         rdf:about="">
        <dc:format>image/svg+xml</dc:format>
        <dc:type
           rdf:resource="http://purl.org/dc/dcmitype/StillImage" />
      </cc:Work>
    </rdf:RDF>
  </metadata>
  <defs
     id="defs53" />
  <sodipodi:namedview
     pagecolor="#ffffff"
     bordercolor="#666666"
     borderopacity="1"
     objecttolerance="10"
     gridtolerance="10"
     guidetolerance="10"
     inkscape:pageopacity="0"
     inkscape:pageshadow="2"
     inkscape:window-width="1920"
     inkscape:window-height="1009"
     id="namedview51"
     showgrid="false"
     inkscape:zoom="0.57010487"
     inkscape:cx="707.31496"
     inkscape:cy="527.26258"
     inkscape:window-x="0"
     inkscape:window-y="34"
     inkscape:window-maximized="1"
     inkscape:current-layer="layer1" />
  <g
     inkscape:label="Layer 1"
     inkscape:groupmode="layer"
     id="layer1"
     transform="translate(885.71428,121.9237)">
    <g
       id="btn_gamectrl_icon">
      <circle
         id="circle73"
         r="110.589"
         cy="37.83955"
         cx="838.51477"
         stroke-miterlimit="10"
         style="fill:#ffffff;stroke:#d1d3d4;stroke-width:10;stroke-miterlimit:10" />
      <path
         id="path717"
         d="m 907.12172,61.024563 c 0,-0.534 0.106,-13.019 -0.738,-15.332 0,0 -0.312,-7.037 -1.891,-13.237 -1.576,-6.198 -9.15,-17.86 -9.15,-17.86 0,0 -4.609,-6.9870001 -8.997,-6.9870001 -4.386,0 -5.896,3.6720001 -8.153,6.9340001 -2.265,3.261 -4.589,6.777 -10.366,9.455 -5.724,2.655 -6.614,3.916 -27.729,3.938 -21.118,-0.021 -22.008,-1.282 -27.733,-3.938 -5.779,-2.678 -8.101,-6.194 -10.363,-9.455 -2.26,-3.262 -3.769,-6.9340001 -8.156,-6.9340001 -4.385,0 -8.994,6.9870001 -8.994,6.9870001 0,0 -7.577,11.662 -9.155,17.86 -1.574,6.2 -1.892,13.237 -1.892,13.237 -0.839,2.313 -0.729,14.798 -0.734,15.332 -0.01,0.534 -0.187,8.441 1.47,18.606 1.655,10.166 8.882,19.98 8.882,19.98 l 56.659,14.469997 0,0.01 0.018,0 0.011,0 0,-0.01 56.663,-14.469997 c 0,0 7.227,-9.814 8.88,-19.98 1.653,-10.165 1.475,-18.072 1.468,-18.606 z"
         style="fill:#dcdbdb"
         inkscape:connector-curvature="0" />
      <path
         id="path719"
         d="m 783.99372,31.562563 c 2.483,-0.157 2.091,-0.67 8.671,2.205 9.001,3.936 25.371,16.865 25.371,16.865 0,0 3.051,3.678 4.256,9.613 1.211,5.938 0.319,12.033 0,17.336 -0.317,5.304 -1.104,18.441 -1.104,18.441 0,0 0.159,14.972997 20.019,14.972997 19.855,0 20.487,-11.506997 20.487,-11.506997 0,0 0.504,-5.547 0,-11.427 -0.505,-5.879 -0.789,-10.009 -1.89,-19.464 -1.104,-9.456 1.942,-11.767 2.835,-13.867 0.83,-1.326 1.785,-3.468 6.46,-7.251 4.678,-3.783 21.331,-13.764 23.484,-14.813 2.152,-1.052 3.835,-0.945 5.355,-0.37 1.526,0.578 2.785,2.416 4.101,5.727 1.313,3.31 2.206,24.587 2.206,24.587 0,0 0.393,10.636 -0.946,18.597 -1.337,7.958 -2.746,12.641 -4.727,16.075 -3.013,3.960997 -17.178,27.580997 -57.366,27.580997 -40.191,0 -55.004,-21.593 -57.213,-24.43 -2.206,-2.835997 -4.255,-9.099997 -5.518,-16.171997 -1.257,-7.073 -1.414,-28.901 -1.414,-28.901 0,0 0.769,-13.804 1.573,-16.075 0.808,-2.272 2.318,-7.88 5.36,-7.723 z"
         style="fill:#aeadae"
         inkscape:connector-curvature="0" />
      <ellipse
         id="ellipse721"
         ry="16.759001"
         rx="17.216"
         cy="84.261421"
         cx="883.13977"
         style="fill:#ffffff" />
      <path
         id="path723"
         d="m 785.51772,58.513563 c 3.072,-0.641 4.992,-1.524 13.66,-1.156 8.669,0.367 13.346,1.47 14.392,1.891 1.052,0.422 1.584,2.061 -1.153,1.734 -2.739,-0.327 -8.51,-1.105 -13.238,-1.105 -4.729,0 -10.982,-0.156 -12.347,0.053 -1.366,0.212 -2.888,-1.049 -1.314,-1.417 z"
         style="fill:#dcdbdb"
         inkscape:connector-curvature="0" />
      <path
         id="path725"
         d="m 896.40972,62.860563 c -2.731,-1.548 -4.288,-2.978 -12.652,-5.277 -8.363,-2.299 -13.155,-2.681 -14.284,-2.603 -1.127,0.079 -2.135,1.479 0.57,2.004 2.705,0.529 8.44,1.553 12.942,2.998 4.502,1.447 10.502,3.209 11.737,3.828 1.237,0.617 3.072,-0.119 1.687,-0.95 z"
         style="fill:#dcdbdb"
         inkscape:connector-curvature="0" />
      <path
         id="path727"
         d="m 814.75572,77.728563 c -2.616,-6.011 -8.733,-10.226 -15.857,-10.226 -8.359,0 -15.323,5.801 -16.885,13.493 3.291,-1.507 10.047,-4.098 17.624,-4.098 6.535,0 11.918,0.469 15.118,0.831 z"
         style="fill:#dcdbdb"
         inkscape:connector-curvature="0" />
      <path
         id="path729"
         d="m 796.36772,96.887563 c 5.799,1.397 10.041,1.269 12.92,0.736 4.147,-3.06 6.825,-7.907 6.825,-13.362 0,-2.318 -0.484,-4.526 -1.357,-6.533 -3.2,-0.362 -8.583,-0.83 -15.118,-0.83 -7.577,0 -14.333,2.591 -17.624,4.098 -0.214,1.057 -0.329,2.147 -0.329,3.266 0,1.292 0.152,2.548 0.439,3.756 2.204,2.889 6.554,7.021 14.244,8.869 z"
         style="fill:#ffffff"
         inkscape:connector-curvature="0" />
      <path
         id="path731"
         d="m 798.89772,101.01756 c 3.903,0 7.502,-1.264997 10.39,-3.393997 -2.879,0.532 -7.121,0.661 -12.92,-0.736 -7.69,-1.849 -12.04,-5.98 -14.244,-8.87 1.75,7.446 8.593,12.999997 16.774,12.999997 z"
         style="fill:#dcdbdb"
         inkscape:connector-curvature="0" />
      <path
         id="path733"
         d="m 867.61272,77.728563 c 2.616,-6.011 8.73,-10.226 15.856,-10.226 8.362,0 15.324,5.801 16.887,13.493 -3.29,-1.507 -10.048,-4.098 -17.626,-4.098 -6.536,0 -11.919,0.469 -15.117,0.831 z"
         style="fill:#dcdbdb"
         inkscape:connector-curvature="0" />
      <path
         id="path735"
         d="m 883.46972,101.01756 c -3.904,0 -7.502,-1.264997 -10.389,-3.393997 2.88,0.532 7.123,0.661 12.922,-0.736 7.688,-1.849 12.038,-5.98 14.242,-8.87 -1.752,7.446 -8.594,12.999997 -16.775,12.999997 z"
         style="fill:#dcdbdb"
         inkscape:connector-curvature="0" />
      <ellipse
         id="ellipse737"
         ry="6.855"
         rx="8.1560001"
         cy="89.056587"
         cx="805.98181"
         style="fill:#414141" />
      <path
         id="path739"
         d="m 875.23272,89.056563 c 0,-3.784 3.841,-6.855 8.577,-6.855 4.733,0 8.578,3.071 8.578,6.855 0,3.787 -3.845,6.855 -8.578,6.855 -4.736,0 -8.577,-3.068 -8.577,-6.855 z"
         style="fill:#414141"
         inkscape:connector-curvature="0" />
      <path
         id="path741"
         d="m 881.51272,87.640563 c 0,-0.958 0.777,-1.734 1.733,-1.734 0.958,0 1.736,0.776 1.736,1.734 0,0.954 -0.778,1.732 -1.736,1.732 -0.956,0.001 -1.733,-0.778 -1.733,-1.732 z"
         style="fill:#fdfeff"
         inkscape:connector-curvature="0" />
      <path
         id="path743"
         d="m 805.03572,87.640563 c 0,-0.958 0.776,-1.734 1.732,-1.734 0.961,0 1.735,0.776 1.735,1.734 0,0.954 -0.774,1.732 -1.735,1.732 -0.956,0.001 -1.732,-0.778 -1.732,-1.732 z"
         style="fill:#fdfeff"
         inkscape:connector-curvature="0" />
      <ellipse
         id="ellipse745"
         ry="2.2019999"
         rx="2.6900001"
         cy="118.82759"
         cx="848.70679"
         style="fill:#dcdbdb" />
      <g
         id="g747"
         transform="translate(-885.71428,2491.9855)">
        <path
           id="path749"
           d="m 1736.438,-2471.122 -0.624,-0.457 c -3.641,-2.668 -6.273,-4.596 -9.85,-8.215 -3.539,-3.145 -6.113,-4.804 -9.684,-4.697 -0.244,0.01 -0.485,0.011 -0.729,0.011 -13.912,0 -28.917,-12.18 -29.08,-30.329 0.021,-8.089 3.161,-15.709 8.846,-21.46 5.687,-5.753 13.278,-8.979 21.374,-9.08 1.934,-0.024 4.004,-0.037 6.517,-0.037 1.679,0 3.357,0.01 5.036,0.011 2.621,0.01 5.242,0.016 7.861,0 l 0.149,0 c 7.559,0 14.191,2.468 19.713,7.335 9.538,8.405 12.802,19.275 9.44,31.434 -3.08,11.144 -10.951,18.565 -22.762,21.466 -0.993,0.244 -0.983,0.411 -0.959,0.856 0.082,1.465 0.235,2.971 0.383,4.426 0.16,1.574 0.324,3.2 0.407,4.823 0.052,1.052 -0.198,3.078 -1.477,4.008 -0.67,0.486 -1.528,0.59 -2.129,0.59 -0.449,0 -1.588,-0.07 -2.432,-0.688 z m 3.096,-3.762 c -0.08,-1.55 -0.242,-3.138 -0.398,-4.675 -0.149,-1.487 -0.305,-3.024 -0.394,-4.559 -0.114,-2.028 0.964,-3.334 3.2,-3.883 10.867,-2.669 17.805,-9.193 20.624,-19.39 3.082,-11.151 0.208,-20.721 -8.55,-28.438 -4.967,-4.378 -10.941,-6.598 -17.763,-6.598 l -0.138,0 c -2.627,0.011 -5.254,0 -7.881,0 -1.676,0 -3.353,-0.01 -5.028,-0.01 -2.501,0 -4.558,0.01 -6.479,0.035 -15.021,0.191 -27.272,12.574 -27.311,27.586 0.148,16.385 13.632,27.389 26.133,27.389 0.216,0 0.428,0 0.643,-0.01 4.573,-0.141 7.743,1.896 11.765,5.471 l 0.07,0.066 c 3.427,3.475 5.854,5.252 9.525,7.942 l 0.613,0.449 c 0.066,0.038 0.336,0.124 0.704,0.124 0.179,0 0.31,-0.021 0.388,-0.04 0.143,-0.236 0.305,-0.882 0.277,-1.457 z"
           inkscape:connector-curvature="0"
           style="fill:#b2e3f8" />
      </g>
      <path
         id="path751"
         d="m 843.52572,-41.435437 c -0.23,-1.141 -0.46,-2.211 -0.657,-3.287 -0.045,-0.24 -0.051,-0.535 0.048,-0.747 0.172,-0.366 0.634,-0.369 0.991,-0.046 1.266,1.145 2.527,2.293 3.789,3.438 0.826,0.749 1.65,1.498 2.479,2.24 0.525,0.471 0.541,0.768 0.021,1.244 -2.081,1.904 -4.165,3.801 -6.247,5.701 -0.246,0.227 -0.514,0.326 -0.827,0.178 -0.339,-0.163 -0.349,-0.467 -0.287,-0.784 0.224,-1.16 0.448,-2.319 0.688,-3.552 -0.197,0 -0.364,0 -0.532,0 -2.573,0 -5.148,0 -7.722,0 -0.887,0 -1.023,-0.141 -1.023,-1.033 0,-0.839 0,-1.678 0,-2.517 10e-4,-0.623 0.208,-0.833 0.829,-0.833 2.646,0 5.292,0 7.938,0 0.158,0 0.314,0 0.512,0 z"
         style="clip-rule:evenodd;fill:#b2e3f8;fill-rule:evenodd"
         inkscape:connector-curvature="0" />
      <path
         id="path753"
         d="m 821.52972,-28.402437 c 1.138,-0.231 2.211,-0.461 3.286,-0.659 0.24,-0.044 0.535,-0.05 0.747,0.049 0.366,0.172 0.368,0.636 0.046,0.991 -1.145,1.266 -2.292,2.525 -3.438,3.789 -0.748,0.824 -1.497,1.649 -2.24,2.478 -0.471,0.526 -0.769,0.544 -1.246,0.021 -1.902,-2.079 -3.799,-4.165 -5.701,-6.246 -0.227,-0.246 -0.326,-0.515 -0.175,-0.826 0.163,-0.34 0.466,-0.348 0.783,-0.286 1.16,0.223 2.319,0.447 3.55,0.687 0,-0.195 0,-0.364 0,-0.531 0,-2.574 0,-5.148 0,-7.723 0,-0.886 0.142,-1.024 1.035,-1.024 0.841,0 1.678,-10e-4 2.517,0 0.623,0 0.834,0.209 0.834,0.83 0,2.646 0,5.292 0,7.938 0,0.157 0,0.315 0,0.512 z"
         style="clip-rule:evenodd;fill:#b2e3f8;fill-rule:evenodd"
         inkscape:connector-curvature="0" />
      <path
         id="path755"
         d="m 830.70272,-7.1324371 c 0.231,1.139 0.461,2.211 0.659,3.285 0.044,0.242 0.051,0.535 -0.05,0.747 -0.171,0.366 -0.635,0.37 -0.992,0.048 -1.264,-1.146 -2.525,-2.296 -3.787,-3.439 -0.826,-0.748 -1.649,-1.497 -2.479,-2.238 -0.525,-0.471 -0.543,-0.77 -0.021,-1.247 2.082,-1.9029999 4.167,-3.7989999 6.247,-5.7009999 0.247,-0.226 0.516,-0.326 0.827,-0.175 0.339,0.163 0.348,0.467 0.288,0.782 -0.224,1.16 -0.45,2.319 -0.688,3.552 0.197,0 0.365,0 0.531,0 2.574,0 5.149,0 7.721,0 0.888,0 1.026,0.141 1.026,1.033 0,0.8409999 0,1.6799999 0,2.5189999 -0.001,0.621 -0.208,0.833 -0.829,0.833 -2.646,0 -5.295,0 -7.939,0 -0.158,-0.001 -0.317,-0.001 -0.514,-0.001 z"
         style="clip-rule:evenodd;fill:#b2e3f8;fill-rule:evenodd"
         inkscape:connector-curvature="0" />
      <path
         id="path757"
         d="m 857.13672,-15.436437 c 3.297,-3.81 6.335,-7.354 9.425,-10.856 0.587,-0.663 1.296,-1.364 2.093,-1.656 1.256,-0.457 2.518,0.324 3.392,1.759 0.636,1.044 0.501,2.097 -0.491,3.251 -2.598,3.017 -5.218,6.018 -7.827,9.024 -1.28,1.476 -2.568,2.942 -3.835,4.4289999 -1.267,1.488 -3.116,1.726 -4.525,0.374 -2.737,-2.6229999 -5.41,-5.3159999 -8.058,-8.0309999 -1.122,-1.147 -0.944,-2.574 0.325,-3.847 1.329,-1.33 2.625,-1.504 3.823,-0.328 1.906,1.875 3.721,3.845 5.678,5.881 z"
         style="clip-rule:evenodd;fill:#b2e3f8;fill-rule:evenodd"
         inkscape:connector-curvature="0" />
    </g>
    <g
       id="btn_gamectrl_joint_1"
       inkscape:label="#btn_gamectrl_joint_1">
      <text
         id="text207"
         font-size="62"
         style="font-size:62px;font-family:GothamRounded-Medium;fill:#a7a9ac"
         x="-567.33685"
         y="-27.316257">Por favor, coloque-se mais atrás</text>
      <path
         id="path5171"
         d="m 510.46951,-96.316367 c 22.66616,-0.56226 41.49615,17.36309 42.05624,40.02383 0.56119,22.66834 -17.35876,41.49398 -40.02927,42.056249 -22.664,0.55901 -41.48964,-17.361999 -42.04865,-40.028189 -0.56444,-22.66399 17.35552,-41.48962 40.02168,-42.05189 z"
         inkscape:connector-curvature="0"
         style="fill:#fafdfe;stroke:#d4e2f4;stroke-width:5.11835384;stroke-miterlimit:4;stroke-dasharray:none;stroke-opacity:1" />
    </g>
    <g
       id="btn_gamectrl_joint_2">
      <text
         id="text211"
         font-size="62"
         style="font-size:62px;font-family:GothamRounded-Medium;fill:#a7a9ac"
         x="-286.97412"
         y="89.639854">Não pise a área de jogo</text>
      <path
         style="fill:#fafdfe;stroke:#d4e2f4;stroke-width:5.11835384;stroke-miterlimit:4;stroke-dasharray:none;stroke-opacity:1"
         inkscape:connector-curvature="0"
         d="m 523.73951,24.397635 c 22.66616,-0.56226 41.49615,17.36309 42.05624,40.02383 0.56119,22.668337 -17.35876,41.493975 -40.02927,42.056245 -22.664,0.55901 -41.48964,-17.361998 -42.04865,-40.028185 -0.56444,-22.66399 17.35552,-41.48962 40.02168,-42.05189 z"
         id="path7383" />
    </g>
    <g
       id="btn_gamectrl_joint_3">
      <text
         id="text215"
         font-size="62"
         style="font-size:62px;font-family:GothamRounded-Medium;fill:#a7a9ac"
         x="-374.85788"
         y="207.97287">Okay, está na posição certa</text>
      <path
         id="path7385"
         d="m 558.08951,141.81563 c 22.66616,-0.56226 41.49615,17.36309 42.05624,40.02383 0.56119,22.66834 -17.35876,41.49398 -40.02927,42.05625 -22.664,0.55901 -41.48964,-17.362 -42.04865,-40.02819 -0.56444,-22.66399 17.35552,-41.48962 40.02168,-42.05189 z"
         inkscape:connector-curvature="0"
         style="fill:#fafdfe;stroke:#d4e2f4;stroke-width:5.11835384;stroke-miterlimit:4;stroke-dasharray:none;stroke-opacity:1" />
    </g>
    <g
       id="btn_gamectrl_joint_4">
      <text
         id="text219"
         font-size="62"
         style="font-size:62px;font-family:GothamRounded-Medium;fill:#a7a9ac"
         x="308.86285"
         y="323.51096">Frase 4</text>
      <path
         style="fill:#fafdfe;stroke:#d4e2f4;stroke-width:5.11835384;stroke-miterlimit:4;stroke-dasharray:none;stroke-opacity:1"
         inkscape:connector-curvature="0"
         d="m 612.60951,259.24963 c 22.66616,-0.56226 41.49615,17.36309 42.05624,40.02383 0.56119,22.66834 -17.35876,41.49398 -40.02927,42.05625 -22.664,0.55901 -41.48964,-17.362 -42.04865,-40.02819 -0.56444,-22.66399 17.35552,-41.48962 40.02168,-42.05189 z"
         id="path7387" />
    </g>
    <g
       id="btn_gamectrl_joint_5">
      <text
         id="text223"
         font-size="62"
         style="font-size:62px;font-family:GothamRounded-Medium;fill:#a7a9ac"
         x="379.95172"
         y="437.37714">Frase 5</text>
      <path
         id="path7389"
         d="m 680.03951,373.22063 c 22.66616,-0.56226 41.49615,17.36309 42.05624,40.02383 0.56119,22.66834 -17.35876,41.49398 -40.02927,42.05625 -22.664,0.55901 -41.48964,-17.362 -42.04865,-40.02819 -0.56444,-22.66399 17.35552,-41.48962 40.02168,-42.05189 z"
         inkscape:connector-curvature="0"
         style="fill:#fafdfe;stroke:#d4e2f4;stroke-width:5.11835384;stroke-miterlimit:4;stroke-dasharray:none;stroke-opacity:1" />
    </g>
    <g
       id="btn_gamectrl_joint_6">
      <text
         id="text227"
         font-size="62"
         style="font-size:62px;font-family:GothamRounded-Medium;fill:#a7a9ac"
         x="464.71539"
         y="540.84888">Frase 6</text>
      <path
         style="fill:#fafdfe;stroke:#d4e2f4;stroke-width:5.11835384;stroke-miterlimit:4;stroke-dasharray:none;stroke-opacity:1"
         inkscape:connector-curvature="0"
         d="m 766.84951,478.69363 c 22.66616,-0.56226 41.49615,17.36309 42.05624,40.02383 0.56119,22.66834 -17.35876,41.49398 -40.02927,42.05625 -22.664,0.55901 -41.48964,-17.362 -42.04865,-40.02819 -0.56444,-22.66399 17.35552,-41.48962 40.02168,-42.05189 z"
         id="path7391" />
    </g>
    <g
       id="btn_gamectrl_joint_7">
      <text
         id="text231"
         font-size="62"
         style="font-size:62px;font-family:GothamRounded-Medium;fill:#a7a9ac"
         x="562.68121"
         y="649.68964">Frase 7</text>
      <path
         id="path7393"
         d="m 862.57951,578.47863 c 22.66616,-0.56226 41.49615,17.36309 42.05624,40.02383 0.56119,22.66834 -17.35876,41.49398 -40.02927,42.05625 -22.664,0.55901 -41.48964,-17.362 -42.04865,-40.02819 -0.56444,-22.66399 17.35552,-41.48962 40.02168,-42.05189 z"
         inkscape:connector-curvature="0"
         style="fill:#fafdfe;stroke:#d4e2f4;stroke-width:5.11835384;stroke-miterlimit:4;stroke-dasharray:none;stroke-opacity:1" />
    </g>
    <g
       id="btn_gamectrl_joint_8">
      <text
         id="text203"
         font-size="62"
         style="font-size:62px;font-family:GothamRounded-Medium;fill:#a7a9ac"
         x="654.60413"
         y="750.19745">Frase 8</text>
      <path
         style="fill:#fafdfe;stroke:#d4e2f4;stroke-width:5.11835384;stroke-miterlimit:4;stroke-dasharray:none;stroke-opacity:1"
         inkscape:connector-curvature="0"
         d="m 955.80951,677.97163 c 22.66616,-0.56226 41.49615,17.36309 42.05624,40.02383 0.56119,22.66834 -17.35876,41.49398 -40.02927,42.05625 -22.664,0.55901 -41.48964,-17.362 -42.04865,-40.02819 -0.56444,-22.66399 17.35552,-41.48962 40.02168,-42.05189 z"
         id="path7395" />
    </g>
    <g
       id="btn_gamectrl_joint_9"
       transform="translate(-15.786569,-3.5081265)">
      <text
         y="599.34802"
         x="-695.82959"
         style="font-size:62px;font-family:GothamRounded-Medium;fill:#a7a9ac"
         font-size="62"
         id="text4185">Abola vai para a direita</text>
      <path
         id="path4187"
         d="m -787.45243,539.10852 c 22.66616,-0.56226 41.49615,17.36309 42.05624,40.02383 0.56119,22.66834 -17.35876,41.49398 -40.02927,42.05625 -22.664,0.55901 -41.48964,-17.362 -42.04865,-40.02819 -0.56444,-22.66399 17.35552,-41.48962 40.02168,-42.05189 z"
         inkscape:connector-curvature="0"
         style="fill:#fafdfe;stroke:#d4e2f4;stroke-width:5.11835384;stroke-miterlimit:4;stroke-dasharray:none;stroke-opacity:1" />
    </g>
    <text
       xml:space="preserve"
       style="font-style:normal;font-weight:normal;font-size:90px;line-height:0%;font-family:sans-serif;letter-spacing:0px;word-spacing:0px;fill:#000000;fill-opacity:1;stroke:none;stroke-width:1px;stroke-linecap:butt;stroke-linejoin:miter;stroke-opacity:1"
       x="119.55904"
       y="580.95294"
       id="text4205"
       sodipodi:linespacing="0%"><tspan
         sodipodi:role="line"
         id="tspan4207"
         x="119.55904"
         y="580.95294"> </tspan></text>
    <g
       id="btn_gamectrl_joint_10"
       transform="translate(-75.42472,-64.90034)">
      <path
         id="path4201"
         d="m -643.61924,707.4986 c 22.66616,-0.56226 41.49615,17.36309 42.05624,40.02383 0.56119,22.66834 -17.35876,41.49398 -40.02927,42.05625 -22.664,0.55901 -41.48964,-17.362 -42.04865,-40.02819 -0.56444,-22.66399 17.35552,-41.48962 40.02168,-42.05189 z"
         inkscape:connector-curvature="0"
         style="fill:#fafdfe;stroke:#d4e2f4;stroke-width:5.11835384;stroke-miterlimit:4;stroke-dasharray:none;stroke-opacity:1" />
      <text
         id="text4209"
         font-size="62"
         style="font-size:62px;font-family:GothamRounded-Medium;fill:#a7a9ac"
         x="-562.52081"
         y="767.7381">Abola vai para a esquerda</text>
    </g>
  </g>
</svg>
