<svg
   xmlns:dc="http://purl.org/dc/elements/1.1/"
   xmlns:cc="http://creativecommons.org/ns#"
   xmlns:rdf="http://www.w3.org/1999/02/22-rdf-syntax-ns#"
   xmlns:svg="http://www.w3.org/2000/svg"
   xmlns="http://www.w3.org/2000/svg"
   xmlns:sodipodi="http://sodipodi.sourceforge.net/DTD/sodipodi-0.dtd"
   xmlns:inkscape="http://www.inkscape.org/namespaces/inkscape"
   width="541.86664mm"
   height="304.80014mm"
   viewBox="0 0 1919.9999 1080.0005"
   id="btn_social_full"
   version="1.1"
   inkscape:version="0.91 r13725"
   sodipodi:docname="btn_social.svg">
  <g
     inkscape:label="Layer 1"
     inkscape:groupmode="layer"
     id="layer1"
     transform="translate(1320,-43.790535)">
    <g
       id="g5741">
      <path
         style="fill:#dcdbdb"
         inkscape:connector-curvature="0"
         d="m -1052.525,231.657 c -0.01,-0.534 0.104,-13 -0.736,-15.307 0,0 -0.314,-7.029 -1.888,-13.218 -1.573,-6.19 -9.14,-17.833 -9.14,-17.833 0,0 -4.602,-6.978 -8.982,-6.978 -4.379,0 -5.883,3.668 -8.143,6.923 -2.258,3.256 -4.576,6.767 -10.346,9.444 -5.716,2.65 -6.606,3.908 -27.688,3.931 -21.083,-0.023 -21.974,-1.281 -27.688,-3.931 -5.77,-2.677 -8.088,-6.188 -10.346,-9.444 -2.26,-3.255 -3.764,-6.923 -8.145,-6.923 -4.38,0 -8.981,6.978 -8.981,6.978 0,0 -7.565,11.643 -9.14,17.833 -1.574,6.188 -1.889,13.218 -1.889,13.218 -0.84,2.307 -0.729,14.772 -0.734,15.307 -0.01,0.532 -0.184,8.428 1.469,18.576 1.651,10.149 8.867,19.949 8.867,19.949 l 56.574,14.448 0,0.01 0.013,0 0.013,0 0,-0.01 56.574,-14.448 c 0,0 7.215,-9.8 8.866,-19.949 1.651,-10.149 1.474,-18.044 1.47,-18.576 z"
         id="path17" />
      <path
         style="fill:#aeadae"
         inkscape:connector-curvature="0"
         d="m -1175.461,202.239 c 2.479,-0.155 2.085,-0.668 8.654,2.205 8.988,3.929 25.334,16.837 25.334,16.837 0,0 3.043,3.671 4.249,9.6 1.206,5.925 0.317,12.014 0,17.308 -0.317,5.294 -1.102,18.411 -1.102,18.411 0,0 0.157,14.948 19.984,14.948 19.827,0 20.456,-11.486 20.456,-11.486 0,0 0.504,-5.54 0,-11.409 -0.503,-5.869 -0.786,-9.992 -1.889,-19.434 -1.101,-9.44 1.941,-11.749 2.834,-13.846 0.829,-1.323 1.783,-3.464 6.451,-7.239 4.668,-3.775 21.295,-13.742 23.445,-14.792 2.151,-1.048 3.83,-0.943 5.352,-0.367 1.52,0.578 2.779,2.412 4.09,5.717 1.311,3.306 2.203,24.55 2.203,24.55 0,0 0.395,10.62 -0.943,18.569 -1.338,7.945 -2.743,12.619 -4.721,16.047 -3.008,3.954 -17.152,27.537 -57.278,27.537 -40.126,0 -54.918,-21.557 -57.12,-24.39 -2.204,-2.832 -4.249,-9.086 -5.508,-16.147 -1.26,-7.062 -1.416,-28.854 -1.416,-28.854 0,0 0.77,-13.784 1.574,-16.051 0.805,-2.269 2.312,-7.869 5.351,-7.714 z"
         id="path19" />
      <ellipse
         style="fill:#ffffff"
         cx="-1076.4709"
         cy="254.85695"
         rx="17.188"
         ry="16.731001"
         id="ellipse21" />
      <path
         style="fill:#dcdbdb"
         inkscape:connector-curvature="0"
         d="m -1098.337,282.801 c -2.871,1.337 -3.817,2.951 -6.687,3.777 -1.478,0.427 -7.142,0.776 -12.775,0.861 -5.635,-0.085 -11.299,-0.435 -12.775,-0.861 -2.871,-0.826 -3.817,-2.44 -6.688,-3.777 -2.045,-0.985 -1.253,1.375 0.137,2.693 1.391,1.317 3.374,3.166 6.551,4.502 1.494,0.628 7.174,0.661 12.775,0.527 5.598,0.134 11.28,0.101 12.775,-0.527 3.175,-1.336 5.16,-3.185 6.549,-4.502 1.39,-1.318 2.183,-3.678 0.138,-2.693 z"
         id="path23" />
      <path
         style="fill:#dcdbdb"
         inkscape:connector-curvature="0"
         d="m -1062.752,230.397 c -3.043,-1.026 -4.932,-2.394 -13.597,-2.04 -8.663,0.357 -13.368,1.907 -14.431,2.513 -1.063,0.604 -1.646,3.05 1.094,2.623 2.743,-0.428 8.533,-1.463 13.253,-1.356 4.72,0.107 10.966,0.01 12.321,0.357 1.357,0.345 2.921,-1.511 1.36,-2.097 z"
         id="path25" />
      <path
         style="fill:#dcdbdb"
         inkscape:connector-curvature="0"
         d="m -1175.227,230.397 c 3.045,-1.026 4.932,-2.394 13.598,-2.04 8.664,0.357 13.367,1.907 14.432,2.513 1.063,0.604 1.646,3.05 -1.096,2.623 -2.742,-0.428 -8.532,-1.463 -13.252,-1.356 -4.72,0.107 -10.965,0.01 -12.322,0.357 -1.356,0.345 -2.918,-1.511 -1.36,-2.097 z"
         id="path27" />
      <path
         style="fill:#dcdbdb"
         inkscape:connector-curvature="0"
         d="m -1144.749,248.334 c -2.611,-6 -8.717,-10.208 -15.832,-10.208 -8.346,0 -15.301,5.793 -16.859,13.471 3.284,-1.502 10.031,-4.09 17.597,-4.09 6.525,0 11.902,0.467 15.094,0.827 z"
         id="path29" />
      <path
         style="fill:#ffffff"
         inkscape:connector-curvature="0"
         d="m -1163.108,267.464 c 5.79,1.395 10.026,1.267 12.899,0.733 4.141,-3.056 6.816,-7.895 6.816,-13.341 0,-2.313 -0.482,-4.52 -1.356,-6.523 -3.192,-0.36 -8.569,-0.827 -15.095,-0.827 -7.565,0 -14.313,2.588 -17.597,4.09 -0.214,1.055 -0.329,2.145 -0.329,3.261 0,1.29 0.155,2.545 0.439,3.751 2.202,2.886 6.546,7.012 14.223,8.856 z"
         id="path31" />
      <path
         style="fill:#dcdbdb"
         inkscape:connector-curvature="0"
         d="m -1160.581,271.589 c 3.897,0 7.49,-1.264 10.372,-3.391 -2.873,0.533 -7.109,0.661 -12.899,-0.733 -7.677,-1.845 -12.021,-5.971 -14.222,-8.856 1.75,7.433 8.581,12.98 16.749,12.98 z"
         id="path33" />
      <path
         style="fill:#dcdbdb"
         inkscape:connector-curvature="0"
         d="m -1092.793,248.334 c 2.678,-6 8.936,-10.208 16.229,-10.208 8.557,0 15.685,5.793 17.281,13.471 -3.366,-1.502 -10.281,-4.09 -18.036,-4.09 -6.689,0 -12.201,0.467 -15.474,0.827 z"
         id="path35" />
      <path
         style="fill:#dcdbdb"
         inkscape:connector-curvature="0"
         d="m -1076.383,271.589 c -3.953,0 -7.598,-1.264 -10.521,-3.391 2.915,0.533 7.211,0.661 13.085,-0.733 7.787,-1.845 12.192,-5.971 14.425,-8.856 -1.774,7.433 -8.704,12.98 -16.989,12.98 z"
         id="path37" />
      <ellipse
         style="fill:#414141"
         cx="-1157.483"
         cy="256.31299"
         rx="8.1440001"
         ry="6.8429999"
         id="ellipse39" />
      <circle
         style="fill:#fdfeff"
         cx="-1152.434"
         cy="252.52003"
         r="3.7620001"
         id="circle41" />
      <ellipse
         style="fill:#414141"
         cx="-1079.558"
         cy="256.31299"
         rx="8.1440001"
         ry="6.8429999"
         id="ellipse43" />
      <circle
         style="fill:#fdfeff"
         cx="-1074.5081"
         cy="252.52003"
         r="3.7609999"
         id="circle45" />
      <text
         y="434.34946"
         x="-1084.9537"
         style="font-size:51.99762726px;font-family:GothamRounded-Bold;fill:#b2e3f8"
         transform="matrix(0.97084431,0.23971094,-0.23971094,0.97084431,0,0)"
         font-size="52"
         id="text49">Hi!</text>
      <circle
         id="circle69"
         r="110.589"
         cy="208.28319"
         cx="-1120.449"
         stroke-miterlimit="10"
         style="fill:#ffffff;stroke:#d1d3d4;stroke-width:10;stroke-miterlimit:10" />
      <path
         style="fill:#dcdbdb"
         inkscape:connector-curvature="0"
         d="m -1052.533,231.66 c -0.01,-0.534 0.104,-13 -0.736,-15.307 0,0 -0.314,-7.029 -1.888,-13.218 -1.573,-6.19 -9.14,-17.833 -9.14,-17.833 0,0 -4.602,-6.978 -8.982,-6.978 -4.379,0 -5.883,3.668 -8.143,6.923 -2.258,3.256 -4.576,6.767 -10.346,9.443 -5.716,2.65 -6.606,3.908 -27.688,3.932 -21.083,-0.023 -21.974,-1.281 -27.688,-3.932 -5.77,-2.677 -8.088,-6.188 -10.346,-9.443 -2.26,-3.255 -3.764,-6.923 -8.145,-6.923 -4.38,0 -8.981,6.978 -8.981,6.978 0,0 -7.565,11.643 -9.14,17.833 -1.574,6.188 -1.889,13.218 -1.889,13.218 -0.84,2.307 -0.729,14.772 -0.734,15.307 -0.01,0.532 -0.184,8.428 1.469,18.576 1.652,10.149 8.867,19.949 8.867,19.949 l 56.574,14.448 0,0.01 0.013,0 0.013,0 0,-0.01 56.574,-14.448 c 0,0 7.215,-9.8 8.866,-19.949 1.651,-10.149 1.474,-18.044 1.47,-18.576 z"
         id="path81" />
      <path
         style="fill:#aeadae"
         inkscape:connector-curvature="0"
         d="m -1175.469,202.242 c 2.479,-0.155 2.085,-0.668 8.654,2.205 8.988,3.929 25.334,16.837 25.334,16.837 0,0 3.043,3.671 4.249,9.6 1.206,5.925 0.317,12.014 0,17.308 -0.317,5.295 -1.102,18.411 -1.102,18.411 0,0 0.157,14.948 19.984,14.948 19.827,0 20.456,-11.486 20.456,-11.486 0,0 0.504,-5.54 0,-11.409 -0.503,-5.869 -0.786,-9.992 -1.888,-19.434 -1.102,-9.44 1.94,-11.749 2.833,-13.846 0.829,-1.323 1.783,-3.464 6.451,-7.239 4.668,-3.775 21.295,-13.742 23.445,-14.792 2.151,-1.048 3.83,-0.943 5.352,-0.367 1.52,0.578 2.779,2.412 4.09,5.717 1.311,3.306 2.203,24.55 2.203,24.55 0,0 0.395,10.62 -0.943,18.568 -1.338,7.945 -2.743,12.619 -4.721,16.048 -3.008,3.954 -17.152,27.537 -57.278,27.537 -40.126,0 -54.918,-21.557 -57.12,-24.39 -2.203,-2.832 -4.249,-9.086 -5.508,-16.147 -1.259,-7.061 -1.416,-28.854 -1.416,-28.854 0,0 0.77,-13.784 1.574,-16.052 0.805,-2.268 2.312,-7.869 5.351,-7.713 z"
         id="path83" />
      <ellipse
         style="fill:#ffffff"
         cx="-1076.479"
         cy="254.85988"
         rx="17.188"
         ry="16.731001"
         id="ellipse85" />
      <path
         style="fill:#dcdbdb"
         inkscape:connector-curvature="0"
         d="m -1098.345,282.804 c -2.871,1.337 -3.817,2.951 -6.687,3.777 -1.478,0.427 -7.142,0.776 -12.775,0.861 -5.635,-0.085 -11.299,-0.435 -12.775,-0.861 -2.871,-0.826 -3.817,-2.44 -6.688,-3.777 -2.045,-0.985 -1.253,1.375 0.137,2.693 1.391,1.317 3.375,3.166 6.551,4.502 1.494,0.628 7.174,0.661 12.775,0.527 5.598,0.134 11.28,0.101 12.775,-0.527 3.175,-1.336 5.16,-3.185 6.549,-4.502 1.391,-1.318 2.183,-3.678 0.138,-2.693 z"
         id="path87" />
      <path
         style="fill:#dcdbdb"
         inkscape:connector-curvature="0"
         d="m -1062.76,230.4 c -3.043,-1.026 -4.932,-2.394 -13.597,-2.04 -8.663,0.357 -13.368,1.907 -14.431,2.513 -1.063,0.604 -1.646,3.05 1.094,2.623 2.743,-0.428 8.533,-1.463 13.253,-1.356 4.72,0.107 10.966,0.01 12.321,0.357 1.357,0.344 2.921,-1.511 1.36,-2.097 z"
         id="path89" />
      <path
         style="fill:#dcdbdb"
         inkscape:connector-curvature="0"
         d="m -1175.234,230.4 c 3.045,-1.026 4.932,-2.394 13.598,-2.04 8.664,0.357 13.367,1.907 14.432,2.513 1.063,0.604 1.646,3.05 -1.096,2.623 -2.742,-0.428 -8.532,-1.463 -13.252,-1.356 -4.72,0.107 -10.965,0.01 -12.322,0.357 -1.356,0.344 -2.919,-1.511 -1.36,-2.097 z"
         id="path91" />
      <path
         style="fill:#dcdbdb"
         inkscape:connector-curvature="0"
         d="m -1144.756,248.336 c -2.612,-6 -8.718,-10.208 -15.833,-10.208 -8.346,0 -15.301,5.793 -16.859,13.471 3.284,-1.502 10.031,-4.09 17.597,-4.09 6.525,0 11.902,0.467 15.095,0.827 z"
         id="path93" />
      <path
         style="fill:#ffffff"
         inkscape:connector-curvature="0"
         d="m -1163.116,267.467 c 5.79,1.395 10.026,1.267 12.899,0.733 4.141,-3.056 6.816,-7.895 6.816,-13.341 0,-2.313 -0.482,-4.52 -1.355,-6.523 -3.193,-0.36 -8.57,-0.827 -15.096,-0.827 -7.565,0 -14.313,2.588 -17.597,4.09 -0.214,1.055 -0.329,2.145 -0.329,3.261 0,1.29 0.155,2.545 0.439,3.751 2.202,2.886 6.546,7.012 14.223,8.856 z"
         id="path95" />
      <path
         style="fill:#dcdbdb"
         inkscape:connector-curvature="0"
         d="m -1160.589,271.591 c 3.897,0 7.49,-1.264 10.372,-3.391 -2.873,0.533 -7.109,0.661 -12.899,-0.733 -7.677,-1.845 -12.021,-5.971 -14.222,-8.856 1.75,7.434 8.581,12.98 16.749,12.98 z"
         id="path97" />
      <path
         style="fill:#dcdbdb"
         inkscape:connector-curvature="0"
         d="m -1092.801,248.336 c 2.678,-6 8.936,-10.208 16.229,-10.208 8.556,0 15.684,5.793 17.28,13.471 -3.366,-1.502 -10.281,-4.09 -18.036,-4.09 -6.688,0 -12.199,0.467 -15.473,0.827 z"
         id="path99" />
      <path
         style="fill:#dcdbdb"
         inkscape:connector-curvature="0"
         d="m -1076.391,271.591 c -3.953,0 -7.597,-1.264 -10.521,-3.391 2.915,0.533 7.211,0.661 13.085,-0.733 7.787,-1.845 12.192,-5.971 14.425,-8.856 -1.774,7.434 -8.703,12.98 -16.989,12.98 z"
         id="path101" />
      <ellipse
         style="fill:#414141"
         cx="-1157.491"
         cy="256.31592"
         rx="8.1440001"
         ry="6.8429999"
         id="ellipse103" />
      <circle
         style="fill:#fdfeff"
         cx="-1152.441"
         cy="252.52296"
         r="3.7620001"
         id="circle105" />
      <ellipse
         style="fill:#414141"
         cx="-1079.5649"
         cy="256.31592"
         rx="8.1440001"
         ry="6.8429999"
         id="ellipse107" />
      <circle
         style="fill:#fdfeff"
         cx="-1074.516"
         cy="252.52296"
         r="3.7609999"
         id="circle109" />
      <text
         y="434.35071"
         x="-1084.9609"
         style="font-size:51.99762726px;font-family:GothamRounded-Bold;fill:#b2e3f8"
         transform="matrix(0.97084431,0.23971094,-0.23971094,0.97084431,0,0)"
         font-size="52"
         id="text113">Hi!</text>
    </g>
    <g
       id="btn_social_joint_1">
      <path
         id="path5171"
         d="m -794.47765,74.89722 c 22.66616,-0.562266 41.49615,17.363092 42.05624,40.02383 0.56119,22.66834 -17.35876,41.49398 -40.02927,42.05625 -22.664,0.55901 -41.48964,-17.362 -42.04865,-40.02819 -0.56444,-22.663987 17.35552,-41.489624 40.02168,-42.05189 z"
         inkscape:connector-curvature="0"
         style="fill:#fafdfe;stroke:#d4e2f4;stroke-width:5.11835384;stroke-miterlimit:4;stroke-dasharray:none;stroke-opacity:1" />
      <text
         id="text159"
         font-size="62"
         style="font-size:62px;font-family:GothamRounded-Medium;fill:#a7a9ac"
         x="-724.39551"
         y="151.74559">Olá, bom dia!</text>
    </g>
    <g
       id="btn_social_joint_2">
      <text
         id="text163"
         font-size="62"
         style="font-size:62px;font-family:GothamRounded-Medium;fill:#a7a9ac"
         x="-734.39551"
         y="268.70261">Olá, boa tarde!</text>
      <path
         style="fill:#fafdfe;stroke:#d4e2f4;stroke-width:5.11835384;stroke-miterlimit:4;stroke-dasharray:none;stroke-opacity:1"
         inkscape:connector-curvature="0"
         d="m -807.72021,195.06908 c 22.66616,-0.56227 41.49615,17.36309 42.05624,40.02383 0.56119,22.66834 -17.35876,41.49398 -40.02927,42.05625 -22.664,0.55901 -41.48964,-17.362 -42.04865,-40.02819 -0.56444,-22.66399 17.35552,-41.48962 40.02168,-42.05189 z"
         id="path5175" />
    </g>
    <g
       id="btn_social_joint_3">
      <text
         id="text167"
         font-size="62"
         style="font-size:62px;font-family:GothamRounded-Medium;fill:#a7a9ac"
         x="-778.81049"
         y="387.03568">Obrigado!</text>
      <path
         id="path5185"
         d="m -842.07421,312.53008 c 22.66616,-0.56227 41.49615,17.36309 42.05624,40.02383 0.56119,22.66834 -17.35876,41.49398 -40.02927,42.05625 -22.664,0.55901 -41.48964,-17.362 -42.04865,-40.02819 -0.56444,-22.66399 17.35552,-41.48962 40.02168,-42.05189 z"
         inkscape:connector-curvature="0"
         style="fill:#fafdfe;stroke:#d4e2f4;stroke-width:5.11835384;stroke-miterlimit:4;stroke-dasharray:none;stroke-opacity:1" />
    </g>
    <g
       id="btn_social_joint_4">
      <text
         id="text171"
         font-size="62"
         style="font-size:62px;font-family:GothamRounded-Medium;fill:#a7a9ac"
         x="-817.71088"
         y="502.57373">De nada.</text>
      <path
         style="fill:#fafdfe;stroke:#d4e2f4;stroke-width:5.11835384;stroke-miterlimit:4;stroke-dasharray:none;stroke-opacity:1"
         inkscape:connector-curvature="0"
         d="m -896.59221,429.96408 c 22.66616,-0.56227 41.49615,17.36309 42.05624,40.02383 0.56119,22.66834 -17.35876,41.49398 -40.02927,42.05625 -22.664,0.55901 -41.48964,-17.362 -42.04865,-40.02819 -0.56444,-22.66399 17.35552,-41.48962 40.02168,-42.05189 z"
         id="path5187" />
    </g>
    <g
       id="btn_social_joint_5">
      <text
         id="text175"
         font-size="62"
         style="font-size:62px;font-family:GothamRounded-Medium;fill:#a7a9ac"
         x="-895.5752"
         y="616.44">Com licença.</text>
      <path
         id="path5189"
         d="m -964.02428,543.93708 c 22.6662,-0.56227 41.49618,17.36309 42.05627,40.02383 0.56119,22.66834 -17.35877,41.49398 -40.02927,42.05625 -22.664,0.55901 -41.48962,-17.362 -42.04862,-40.02819 -0.5645,-22.66399 17.35552,-41.48962 40.02162,-42.05189 z"
         inkscape:connector-curvature="0"
         style="fill:#fafdfe;stroke:#d4e2f4;stroke-width:5.11835384;stroke-miterlimit:4;stroke-dasharray:none;stroke-opacity:1" />
    </g>
    <g
       id="btn_social_joint_6">
      <text
         id="text179"
         font-size="62"
         style="font-size:62px;font-family:GothamRounded-Medium;fill:#a7a9ac"
         x="-983.81641"
         y="721.91156">Desculpe!</text>
      <path
         style="fill:#fafdfe;stroke:#d4e2f4;stroke-width:5.11835384;stroke-miterlimit:4;stroke-dasharray:none;stroke-opacity:1"
         inkscape:connector-curvature="0"
         d="m -1050.8333,649.40808 c 22.6662,-0.56227 41.4962,17.36309 42.0563,40.02383 0.5612,22.66834 -17.3588,41.49398 -40.0293,42.05625 -22.664,0.55901 -41.4896,-17.362 -42.0486,-40.02819 -0.5645,-22.66399 17.3555,-41.48962 40.0216,-42.05189 z"
         id="path5191" />
    </g>
    <g
       id="btn_social_joint_7">
      <text
         id="text183"
         font-size="62"
         style="font-size:62px;font-family:GothamRounded-Medium;fill:#a7a9ac"
         x="-1078.2695"
         y="826.41461">Adeus, até uma próxima!</text>
      <path
         id="path5193"
         d="m -1147.5653,745.19108 c 22.6662,-0.56227 41.4962,17.36309 42.0563,40.02383 0.5612,22.66834 -17.3588,41.49398 -40.0293,42.05625 -22.664,0.55901 -41.4896,-17.362 -42.0486,-40.02819 -0.5645,-22.66399 17.3555,-41.48962 40.0216,-42.05189 z"
         inkscape:connector-curvature="0"
         style="fill:#fafdfe;stroke:#d4e2f4;stroke-width:5.11835384;stroke-miterlimit:4;stroke-dasharray:none;stroke-opacity:1" />
    </g>
    <g
       id="btn_social_joint_8">
      <text
         id="text193"
         font-size="62"
         style="font-size:62px;font-family:GothamRounded-Medium;fill:#a7a9ac"
         x="-1174.2637"
         y="924.90973">Frase 8</text>
      <path
         style="fill:#fafdfe;stroke:#d4e2f4;stroke-width:5.11835384;stroke-miterlimit:4;stroke-dasharray:none;stroke-opacity:1"
         inkscape:connector-curvature="0"
         d="m -1243.5603,843.68708 c 22.6662,-0.56227 41.4962,17.36309 42.0563,40.02383 0.5612,22.66834 -17.3588,41.49398 -40.0293,42.05625 -22.664,0.55901 -41.4896,-17.362 -42.0486,-40.02819 -0.5645,-22.66399 17.3555,-41.48962 40.0216,-42.05189 z"
         id="path5195" />
    </g>
  </g>
</svg>
