<?xml version="1.0" encoding="UTF-8" standalone="no"?>
<!-- Created with Inkscape (http://www.inkscape.org/) -->

<svg
   xmlns:dc="http://purl.org/dc/elements/1.1/"
   xmlns:cc="http://creativecommons.org/ns#"
   xmlns:rdf="http://www.w3.org/1999/02/22-rdf-syntax-ns#"
   xmlns:svg="http://www.w3.org/2000/svg"
   xmlns="http://www.w3.org/2000/svg"
   xmlns:sodipodi="http://sodipodi.sourceforge.net/DTD/sodipodi-0.dtd"
   xmlns:inkscape="http://www.inkscape.org/namespaces/inkscape"
   width="541.8667mm"
   height="304.80005mm"
   viewBox="0 0 1920.0001 1080.0002"
   id="svg3989"
   version="1.1"
   inkscape:version="0.91 r13725"
   sodipodi:docname="btn_doubts.svg">
  <defs
     id="defs3991" />
  <sodipodi:namedview
     id="base"
     pagecolor="#ffffff"
     bordercolor="#666666"
     borderopacity="1.0"
     inkscape:pageopacity="0.0"
     inkscape:pageshadow="2"
     inkscape:zoom="0.7"
     inkscape:cx="841.16158"
     inkscape:cy="214.29431"
     inkscape:document-units="px"
     inkscape:current-layer="layer1"
     showgrid="false"
     fit-margin-top="0"
     fit-margin-left="0"
     fit-margin-right="0"
     fit-margin-bottom="0"
     inkscape:window-width="1920"
     inkscape:window-height="1009"
     inkscape:window-x="0"
     inkscape:window-y="34"
     inkscape:window-maximized="1" />
  <metadata
     id="metadata3994">
    <rdf:RDF>
      <cc:Work
         rdf:about="">
        <dc:format>image/svg+xml</dc:format>
        <dc:type
           rdf:resource="http://purl.org/dc/dcmitype/StillImage" />
        <dc:title />
      </cc:Work>
    </rdf:RDF>
  </metadata>
  <g
     inkscape:label="Layer 1"
     inkscape:groupmode="layer"
     id="layer1"
     transform="translate(598.31887,21.92361)">
    <g
       transform="translate(24.969,517.36279)"
       id="btn_game_doubts_joint_8"
       inkscape:label="#btn_game_doubts_joint_8">
      <text
         id="text41"
         font-size="62"
         style="font-size:62px;font-family:GothamRounded-Medium;fill:#a7a9ac"
         x="748.2121"
         y="194.19966">EMPTY</text>
      <path
         style="fill:#fafdfe;stroke:#d4e2f4;stroke-width:5.11835384;stroke-miterlimit:4;stroke-dasharray:none;stroke-opacity:1"
         inkscape:connector-curvature="0"
         d="m 683.65137,133.58964 c 22.66616,-0.56226 41.49615,17.36309 42.05624,40.02383 0.56119,22.66834 -17.35876,41.49398 -40.02927,42.05625 -22.664,0.55901 -41.48964,-17.362 -42.04865,-40.02819 -0.56444,-22.66399 17.35552,-41.48962 40.02168,-42.05189 z"
         id="path3877" />
    </g>
    <g
       transform="translate(24.969,513.14679)"
       id="btn_game_doubts_joint_1"
       inkscape:label="#btn_game_doubts_joint_1">
      <path
         id="path5171-3"
         d="m -11.406627,135.69764 c 22.66616,-0.56226 41.496149,17.36309 42.056239,40.02383 0.56119,22.66834 -17.358759,41.49398 -40.0292689,42.05625 -22.6640001,0.55901 -41.4896391,-17.362 -42.0486491,-40.02819 -0.56444,-22.66399 17.355519,-41.48962 40.021679,-42.05189 z"
         inkscape:connector-curvature="0"
         style="fill:#fafdfe;stroke:#d4e2f4;stroke-width:5.11835384;stroke-miterlimit:4;stroke-dasharray:none;stroke-opacity:1" />
      <text
         sodipodi:linespacing="100%"
         id="text4317"
         y="192.08841"
         x="-220.06943"
         style="font-style:normal;font-weight:normal;font-size:90px;line-height:100%;font-family:sans-serif;text-align:center;letter-spacing:0px;word-spacing:0px;text-anchor:middle;fill:#a7a9ac;fill-opacity:1;stroke:none;stroke-width:1px;stroke-linecap:butt;stroke-linejoin:miter;stroke-opacity:1"
         xml:space="preserve"><tspan
           style="font-style:normal;font-variant:normal;font-weight:normal;font-stretch:normal;font-size:62px;font-family:GothamRounded-Medium;-inkscape-font-specification:GothamRounded-Medium;text-align:center;text-anchor:middle;fill:#a7a9ac;fill-opacity:1"
           id="tspan4325"
           y="192.08841"
           x="-220.06943"
           sodipodi:role="line">Objectivo</tspan></text>
    </g>
    <g
       transform="translate(24.969,330.9268)"
       id="btn_game_doubts_joint_2">
      <path
         style="fill:#fafdfe;stroke:#d4e2f4;stroke-width:5.11835384;stroke-miterlimit:4;stroke-dasharray:none;stroke-opacity:1"
         inkscape:connector-curvature="0"
         d="m 80.091374,226.80764 c 22.666156,-0.56226 41.496146,17.36309 42.056236,40.02383 0.56119,22.66834 -17.35876,41.49398 -40.029266,42.05625 -22.664001,0.55901 -41.48964,-17.362 -42.04865,-40.02819 -0.56444,-22.66399 17.355519,-41.48962 40.02168,-42.05189 z"
         id="path3865" />
      <text
         xml:space="preserve"
         style="font-style:normal;font-weight:normal;font-size:90px;line-height:100%;font-family:sans-serif;text-align:center;letter-spacing:0px;word-spacing:0px;text-anchor:middle;fill:#a7a9ac;fill-opacity:1;stroke:none;stroke-width:1px;stroke-linecap:butt;stroke-linejoin:miter;stroke-opacity:1"
         x="-259.66739"
         y="287.50977"
         id="text4341"
         sodipodi:linespacing="100%"><tspan
           sodipodi:role="line"
           x="-259.66739"
           y="287.50977"
           id="tspan4345"
           style="font-style:normal;font-variant:normal;font-weight:normal;font-stretch:normal;font-size:62px;font-family:GothamRounded-Medium;-inkscape-font-specification:GothamRounded-Medium;text-align:center;text-anchor:middle;fill:#a7a9ac;fill-opacity:1">Instruções (de pé)</tspan></text>
    </g>
    <g
       transform="translate(24.969,177.99079)"
       id="btn_game_doubts_joint_3">
      <g
         id="btn_game_doubts_3">
        <path
           style="fill:#fafdfe;stroke:#d4e2f4;stroke-width:5.11835384;stroke-miterlimit:4;stroke-dasharray:none;stroke-opacity:1"
           inkscape:connector-curvature="0"
           d="m 179.36737,303.27564 c 22.66616,-0.56226 41.49615,17.36309 42.05624,40.02383 0.56119,22.66834 -17.35876,41.49398 -40.02927,42.05625 -22.664,0.55901 -41.48964,-17.362 -42.04865,-40.02819 -0.56444,-22.66399 17.35552,-41.48962 40.02168,-42.05189 z"
           id="path3867" />
      </g>
      <text
         sodipodi:linespacing="100%"
         id="text4353"
         y="366.60522"
         x="-198.2948"
         style="font-style:normal;font-weight:normal;font-size:90px;line-height:100%;font-family:sans-serif;text-align:center;letter-spacing:0px;word-spacing:0px;text-anchor:middle;fill:#a7a9ac;fill-opacity:1;stroke:none;stroke-width:1px;stroke-linecap:butt;stroke-linejoin:miter;stroke-opacity:1"
         xml:space="preserve"><tspan
           style="font-style:normal;font-variant:normal;font-weight:normal;font-stretch:normal;font-size:62px;font-family:GothamRounded-Medium;-inkscape-font-specification:GothamRounded-Medium;text-align:center;text-anchor:middle;fill:#a7a9ac;fill-opacity:1"
           id="tspan4355"
           y="366.60522"
           x="-198.2948"
           sodipodi:role="line">Instruções (sentado)</tspan></text>
    </g>
    <g
       transform="translate(24.969,-27.501326)"
       id="btn_game_doubts_joint_4">
      <path
         style="fill:#fafdfe;stroke:#d4e2f4;stroke-width:5.11835384;stroke-miterlimit:4;stroke-dasharray:none;stroke-opacity:1"
         inkscape:connector-curvature="0"
         d="m 283.39037,379.19364 c 22.66616,-0.56226 41.49615,17.36309 42.05624,40.02383 0.56119,22.66834 -17.35876,41.49398 -40.02927,42.05625 -22.664,0.55901 -41.48964,-17.362 -42.04865,-40.02819 -0.56444,-22.66399 17.35552,-41.48962 40.02168,-42.05189 z"
         id="path3869" />
      <text
         xml:space="preserve"
         style="font-style:normal;font-weight:normal;font-size:90px;line-height:100%;font-family:sans-serif;text-align:center;letter-spacing:0px;word-spacing:0px;text-anchor:middle;fill:#a7a9ac;fill-opacity:1;stroke:none;stroke-width:1px;stroke-linecap:butt;stroke-linejoin:miter;stroke-opacity:1"
         x="-94.2948"
         y="442.60522"
         id="text4359"
         sodipodi:linespacing="100%"><tspan
           id="tspan4363"
           sodipodi:role="line"
           x="-94.2948"
           y="442.60522"
           style="font-style:normal;font-variant:normal;font-weight:normal;font-stretch:normal;font-size:62px;font-family:GothamRounded-Medium;-inkscape-font-specification:GothamRounded-Medium;text-align:center;text-anchor:middle;fill:#a7a9ac;fill-opacity:1">Para controlar o jogo</tspan><tspan
           id="tspan4367"
           sodipodi:role="line"
           x="-94.2948"
           y="504.60522"
           style="font-style:normal;font-variant:normal;font-weight:normal;font-stretch:normal;font-size:62px;font-family:GothamRounded-Medium;-inkscape-font-specification:GothamRounded-Medium;text-align:center;text-anchor:middle;fill:#a7a9ac;fill-opacity:1">(de pé)</tspan></text>
    </g>
    <g
       transform="translate(24.969,-24.192846)"
       id="btn_game_doubts_joint_5">
      <path
         id="path3871"
         d="m 389.00237,379.19364 c 22.66616,-0.56226 41.49615,17.36309 42.05624,40.02383 0.56119,22.66834 -17.35876,41.49398 -40.02927,42.05625 -22.664,0.55901 -41.48964,-17.362 -42.04865,-40.02819 -0.56444,-22.66399 17.35552,-41.48962 40.02168,-42.05189 z"
         inkscape:connector-curvature="0"
         style="fill:#fafdfe;stroke:#d4e2f4;stroke-width:5.11835384;stroke-miterlimit:4;stroke-dasharray:none;stroke-opacity:1" />
      <text
         sodipodi:linespacing="100%"
         id="text4369"
         y="444.01941"
         x="779.68921"
         style="font-style:normal;font-weight:normal;font-size:90px;line-height:100%;font-family:sans-serif;text-align:center;letter-spacing:0px;word-spacing:0px;text-anchor:middle;fill:#a7a9ac;fill-opacity:1;stroke:none;stroke-width:1px;stroke-linecap:butt;stroke-linejoin:miter;stroke-opacity:1"
         xml:space="preserve"><tspan
           style="font-style:normal;font-variant:normal;font-weight:normal;font-stretch:normal;font-size:62px;font-family:GothamRounded-Medium;-inkscape-font-specification:GothamRounded-Medium;text-align:center;text-anchor:middle;fill:#a7a9ac;fill-opacity:1"
           y="444.01941"
           x="779.68921"
           sodipodi:role="line"
           id="tspan4371">Para controlar o jogo</tspan><tspan
           style="font-style:normal;font-variant:normal;font-weight:normal;font-stretch:normal;font-size:62px;font-family:GothamRounded-Medium;-inkscape-font-specification:GothamRounded-Medium;text-align:center;text-anchor:middle;fill:#a7a9ac;fill-opacity:1"
           y="506.01941"
           x="779.68921"
           sodipodi:role="line"
           id="tspan4373">(sentado)</tspan></text>
    </g>
    <g
       transform="translate(24.969,179.17279)"
       id="btn_game_doubts_joint_6">
      <path
         style="fill:#fafdfe;stroke:#d4e2f4;stroke-width:5.11835384;stroke-miterlimit:4;stroke-dasharray:none;stroke-opacity:1"
         inkscape:connector-curvature="0"
         d="m 493.00137,302.68464 c 22.66616,-0.56226 41.49615,17.36309 42.05624,40.02383 0.56119,22.66834 -17.35876,41.49398 -40.02927,42.05625 -22.664,0.55901 -41.48964,-17.362 -42.04865,-40.02819 -0.56444,-22.66399 17.35552,-41.48962 40.02168,-42.05189 z"
         id="path3873" />
      <text
         xml:space="preserve"
         style="font-style:normal;font-weight:normal;font-size:90px;line-height:100%;font-family:sans-serif;text-align:center;letter-spacing:0px;word-spacing:0px;text-anchor:middle;fill:#a7a9ac;fill-opacity:1;stroke:none;stroke-width:1px;stroke-linecap:butt;stroke-linejoin:miter;stroke-opacity:1"
         x="771.06891"
         y="370.27933"
         id="text4379"
         sodipodi:linespacing="100%"><tspan
           sodipodi:role="line"
           x="771.06891"
           y="370.27933"
           id="tspan4381"
           style="font-style:normal;font-variant:normal;font-weight:normal;font-stretch:normal;font-size:62px;font-family:GothamRounded-Medium;-inkscape-font-specification:GothamRounded-Medium;text-align:center;text-anchor:middle;fill:#a7a9ac;fill-opacity:1">Pode repetir?</tspan></text>
    </g>
    <g
       transform="translate(24.969,331.5828)"
       id="btn_game_doubts_joint_7"
       inkscape:label="#btn_game_doubts_joint_7">
      <path
         id="path3875"
         d="m 592.22137,226.47964 c 22.66616,-0.56226 41.49615,17.36309 42.05624,40.02383 0.56119,22.66834 -17.35876,41.49398 -40.02927,42.05625 -22.664,0.55901 -41.48964,-17.362 -42.04865,-40.02819 -0.56444,-22.66399 17.35552,-41.48962 40.02168,-42.05189 z"
         inkscape:connector-curvature="0"
         style="fill:#fafdfe;stroke:#d4e2f4;stroke-width:5.11835384;stroke-miterlimit:4;stroke-dasharray:none;stroke-opacity:1" />
      <text
         sodipodi:linespacing="100%"
         id="text4385"
         y="292.25494"
         x="958.75012"
         style="font-style:normal;font-weight:normal;font-size:90px;line-height:100%;font-family:sans-serif;text-align:center;letter-spacing:0px;word-spacing:0px;text-anchor:middle;fill:#a7a9ac;fill-opacity:1;stroke:none;stroke-width:1px;stroke-linecap:butt;stroke-linejoin:miter;stroke-opacity:1"
         xml:space="preserve"><tspan
           style="font-style:normal;font-variant:normal;font-weight:normal;font-stretch:normal;font-size:62px;font-family:GothamRounded-Medium;-inkscape-font-specification:GothamRounded-Medium;text-align:center;text-anchor:middle;fill:#a7a9ac;fill-opacity:1"
           id="tspan4387"
           y="292.25494"
           x="958.75012"
           sodipodi:role="line">Diga de outra forma</tspan></text>
    </g>
    <g
       id="g3482">
      <path
         style="fill:#ffffff"
         inkscape:connector-curvature="0"
         d="m 256.09224,798.8799 c 0,-58.31349 47.27499,-105.5865 105.58887,-105.5865 58.31626,0 105.58887,47.27301 105.58887,105.5865 0,58.31665 -47.27261,105.59204 -105.58887,105.59204 -58.31388,0 -105.58887,-47.27539 -105.58887,-105.59204 z"
         id="path5" />
      <path
         style="fill:#d1d3d4"
         inkscape:connector-curvature="0"
         d="m 361.68111,914.47167 c -63.73586,0 -115.589,-51.85472 -115.589,-115.59177 0,-63.73468 51.85314,-115.58663 115.589,-115.58663 63.73666,0 115.589,51.85195 115.589,115.58663 0,63.73744 -51.85234,115.59177 -115.589,115.59177 z m 0,-221.17827 c -58.22157,0 -105.58887,47.36572 -105.58887,105.5865 0,58.22276 47.3673,105.59204 105.58887,105.59204 58.22197,0 105.58887,-47.36928 105.58887,-105.59204 0,-58.22078 -47.3669,-105.5865 -105.58887,-105.5865 z"
         id="path7" />
      <g
         transform="matrix(0.56403031,0,0,0.56403031,185.16346,834.94423)"
         id="g3436">
        <path
           id="path9"
           d="m 403.66425,37.524673 c -0.008,-0.53681 0.10578,-13.070051 -0.74401,-15.394382 0,0 -0.31258,-7.065696 -1.89448,-13.2883415 -1.58587,-6.2246265 -9.19115,-17.9338335 -9.19115,-17.9338335 0,0 -4.62727,-7.015382 -9.03348,-7.015382 -4.40422,0 -5.91799,3.687552 -8.18963,6.9611066 -2.27124,3.2755354 -4.60152,6.8046197 -10.40422,9.49620022 C 358.45885,3.0138894 357.56351,4.2796532 336.36047,4.3030273 315.15903,4.2796532 314.26289,3.0138894 308.51565,0.35004082 302.71374,-2.3411435 300.38188,-5.870624 298.11024,-9.1461594 c -2.27124,-3.2735546 -3.78303,-6.9611066 -8.18765,-6.9611066 -4.4062,0 -9.03308,7.015382 -9.03308,7.015382 0,0 -7.60963,11.709207 -9.19154,17.9338335 -1.58191,6.2226455 -1.89845,13.2883415 -1.89845,13.2883415 -0.84384,2.324331 -0.73331,14.857572 -0.73925,15.394382 -0.006,0.536415 -0.1866,8.474874 1.47573,18.681803 1.66431,10.20693 8.91819,20.062456 8.91819,20.062456 l 56.89242,14.527562 0,0.0095 0.0139,-0.0059 0.0135,0.0059 0,-0.0095 56.89559,-14.527562 c 0,0 7.25428,-9.855526 8.91621,-20.062456 1.66035,-10.206929 1.48049,-18.145388 1.47851,-18.681803 z"
           inkscape:connector-curvature="0"
           style="fill:#dcdbdb" />
        <path
           id="path11"
           d="m 280.0326,7.9434354 c 2.4923,-0.1588642 2.09772,-0.6699238 8.70306,2.2165726 9.03902,3.949421 25.47652,16.931127 25.47652,16.931127 0,0 3.06081,3.691117 4.27349,9.65031 1.21109,5.962758 0.31852,12.083984 0,17.410096 -0.3205,5.324924 -1.1065,18.511846 -1.1065,18.511846 0,0 0.15728,15.037037 20.09652,15.037037 19.94084,0 20.57471,-11.554701 20.57471,-11.554701 0,0 0.50472,-5.570549 0,-11.472693 -0.50472,-5.902144 -0.78997,-10.048461 -1.89964,-19.542681 -1.10848,-9.494219 1.95154,-11.816569 2.84767,-13.925779 0.83553,-1.328359 1.79465,-3.480355 6.48808,-7.279232 4.69581,-3.796895 21.41419,-13.818021 23.57649,-14.8746068 2.16388,-1.0526243 3.85157,-0.9492239 5.3788,-0.3692307 1.5312,0.5799933 2.79696,2.4277315 4.11898,5.7519955 1.31648,3.321887 2.21301,24.683386 2.21301,24.683386 0,0 0.39855,10.681541 -0.94764,18.673879 -1.34737,7.990357 -2.7617,12.691313 -4.7477,16.142352 -3.02357,3.974776 -17.24806,27.691507 -57.60276,27.691507 -40.3535,0 -55.2285,-21.678832 -57.44349,-24.528484 -2.21657,-2.846879 -4.27151,-9.137666 -5.53727,-16.239017 -1.26735,-7.103729 -1.42582,-29.017488 -1.42582,-29.017488 0,0 0.77531,-13.8616 1.58191,-16.144333 0.80938,-2.275602 2.32671,-7.9107268 5.38158,-7.7518626 z"
           inkscape:connector-curvature="0"
           style="fill:#aeadae" />
        <path
           id="path13"
           d="m 362.29734,60.857119 c 0,-9.294946 7.74038,-16.826538 17.28531,-16.826538 9.54493,0 17.2853,7.531592 17.2853,16.826538 0,9.290984 -7.74037,16.826141 -17.2853,16.826141 -9.54493,0 -17.28531,-7.535157 -17.28531,-16.826141 z"
           inkscape:connector-curvature="0"
           style="fill:#ffffff" />
        <path
           id="path15"
           d="m 309.83133,32.620482 c -2.93958,1.129085 -4.70492,2.312446 -13.35252,3.345658 -8.64958,1.02925 -13.46028,0.689336 -14.56955,0.443314 -1.1073,-0.248002 -1.89647,-1.789501 0.86523,-1.904786 2.76646,-0.118851 8.61353,-0.278112 13.29785,-1.040739 4.68669,-0.759855 10.90934,-1.60964 12.22859,-2.039088 1.31964,-0.425487 3.03228,0.576427 1.5304,1.195641 z"
           inkscape:connector-curvature="0"
           style="fill:#dcdbdb" />
        <path
           id="path17"
           d="m 391.19202,29.879381 c -3.14639,0.153317 -5.2346,-0.222252 -13.56645,2.322746 -8.32988,2.543016 -12.59584,4.796829 -13.51179,5.469129 -0.91396,0.673886 -1.01538,2.40198 1.56448,1.39452 2.57629,-1.007857 7.99036,-3.216506 12.58633,-4.414129 4.59359,-1.193265 10.63083,-2.922944 12.0095,-3.062396 1.38065,-0.14064 2.54104,-1.749884 0.91793,-1.70987 z"
           inkscape:connector-curvature="0"
           style="fill:#dcdbdb" />
        <path
           id="path19"
           d="m 310.91842,54.295351 c -2.62581,-6.034068 -8.76645,-10.26477 -15.92168,-10.26477 -8.39168,0 -15.38765,5.824098 -16.95609,13.54506 3.30248,-1.510201 10.08769,-4.109474 17.69613,-4.109474 6.56336,0 11.97148,0.464708 15.18164,0.829184 z"
           inkscape:connector-curvature="0"
           style="fill:#dcdbdb" />
        <path
           id="path21"
           d="m 292.45451,73.534962 c 5.82252,1.400065 10.08214,1.273291 12.9726,0.738065 4.16335,-3.0723 6.85374,-7.939648 6.85374,-13.415908 0,-2.326312 -0.48531,-4.544073 -1.36243,-6.561768 -3.20977,-0.364476 -8.61789,-0.829184 -15.18164,-0.829184 -7.60844,0 -14.39365,2.599669 -17.69613,4.109474 -0.21472,1.062528 -0.32921,2.157939 -0.32921,3.281081 0,1.295081 0.15688,2.558468 0.44212,3.770749 2.21301,2.903135 6.57999,7.049849 14.30095,8.907491 z"
           inkscape:connector-curvature="0"
           style="fill:#ffffff" />
        <path
           id="path23"
           d="m 294.99634,77.682864 c 3.91892,0 7.53239,-1.27131 10.43077,-3.409837 -2.89046,0.535226 -7.15008,0.662 -12.9726,-0.738065 -7.72056,-1.857246 -12.08794,-6.00396 -14.30095,-8.907095 1.75781,7.474939 8.6278,13.054997 16.84278,13.054997 z"
           inkscape:connector-curvature="0"
           style="fill:#dcdbdb" />
        <path
           id="path25"
           d="m 363.99256,54.295351 c 2.627,-6.034068 8.76566,-10.26477 15.91811,-10.26477 8.39644,0 15.39082,5.824098 16.95728,13.54506 -3.30089,-1.510201 -10.0861,-4.109474 -17.69732,-4.109474 -6.56058,0 -11.96711,0.464708 -15.17807,0.829184 z"
           inkscape:connector-curvature="0"
           style="fill:#dcdbdb" />
        <path
           id="path27"
           d="m 379.91028,77.682864 c -3.91614,0 -7.52922,-1.27131 -10.42562,-3.409837 2.88888,0.535226 7.14652,0.662 12.9726,-0.738065 7.71858,-1.857246 12.08636,-6.00396 14.29699,-8.907095 -1.75741,7.474939 -8.62463,13.054997 -16.84397,13.054997 z"
           inkscape:connector-curvature="0"
           style="fill:#dcdbdb" />
        <path
           id="path29"
           d="m 289.92299,62.012747 c 0,-3.800857 3.66576,-6.882665 8.18765,-6.882665 4.52347,0 8.19161,3.081808 8.19161,6.882665 0,3.800857 -3.66814,6.885042 -8.19161,6.885042 -4.52149,0 -8.18765,-3.084185 -8.18765,-6.885042 z"
           inkscape:connector-curvature="0"
           style="fill:#414141" />
        <ellipse
           id="ellipse31"
           ry="6.8826647"
           rx="8.6131363"
           cy="64.673027"
           cx="376.26035"
           style="fill:#414141" />
        <path
           id="path33"
           d="m 373.95148,63.24761 c 0,-0.959128 0.78323,-1.740376 1.74394,-1.740376 0.95715,0 1.73642,0.781248 1.73642,1.740376 0,0.96507 -0.77927,1.74196 -1.73642,1.74196 -0.96071,0 -1.74394,-0.777286 -1.74394,-1.74196 z"
           inkscape:connector-curvature="0"
           style="fill:#fdfeff" />
        <path
           id="path35"
           d="m 297.1622,60.587327 c 0,-0.959128 0.78046,-1.740376 1.74038,-1.740376 0.9619,0 1.74038,0.781248 1.74038,1.740376 0,0.963089 -0.77848,1.74196 -1.74038,1.74196 -0.95992,0 -1.74038,-0.778871 -1.74038,-1.74196 z"
           inkscape:connector-curvature="0"
           style="fill:#fdfeff" />
      </g>
      <g
         transform="matrix(0.82551934,0.07813885,-0.07813885,0.82551934,129.05727,808.70633)"
         id="g3428">
        <g
           id="g37"
           transform="matrix(0.39617022,0,0,0.39617022,218.72684,-102.98383)">
          <g
             id="g39">
            <path
               id="path41"
               d="m 297.879,155.149 c -4.871,-1.202 -7.483,-5.767 -7.035,-10.468 l 1.137,-11.833 c 0.53,-5.749 4.676,-8.823 10.213,-8.17 15.065,1.763 22.907,-1.114 24.938,-9.342 L 327.213,115 c 1.866,-7.558 -2.766,-13.332 -12.505,-15.738 -7.22,-1.782 -13.977,-1.133 -21.14,1.908 -2.389,1.013 -5.366,1.527 -8.221,0.822 -6.379,-1.575 -10.43,-8.276 -8.854,-14.658 0.789,-3.191 2.963,-6.217 6.606,-7.99 10.728,-5.191 23.136,-7.118 37.917,-3.467 24.182,5.969 37.572,22.461 32.058,44.795 l -0.084,0.335 c -5.265,21.329 -22.2,26.412 -41.417,25.585 l -1.25,2.899 c -1.75,4.201 -6.231,7.193 -11.103,5.99 l -1.341,-0.332 z m -2.736,11.084 c 8.396,2.073 13.077,9.822 11.085,17.881 l -0.082,0.336 c -1.991,8.061 -9.739,12.741 -18.135,10.666 -8.396,-2.072 -13.077,-9.819 -11.085,-17.88 l 0.081,-0.337 c 1.993,-8.058 9.74,-12.739 18.136,-10.666 z"
               inkscape:connector-curvature="0"
               style="fill:#b2e3f8" />
          </g>
        </g>
        <g
           id="g43"
           transform="matrix(0.39617022,0,0,0.39617022,218.72684,-102.98383)">
          <g
             id="g45">
            <path
               id="path47"
               d="m 373.353,186.535 c 7.743,3.854 10.619,12.434 6.922,19.867 l -0.155,0.309 c -3.697,7.435 -12.278,10.314 -20.021,6.461 -7.743,-3.853 -10.622,-12.434 -6.925,-19.868 l 0.156,-0.309 c 3.697,-7.433 12.28,-10.311 20.023,-6.46 z m 5.085,-10.222 c -4.491,-2.233 -6.047,-7.257 -4.588,-11.747 l 3.69,-11.302 c 1.768,-5.496 6.485,-7.594 11.748,-5.748 14.322,5 22.597,3.902 26.373,-3.688 l 0.153,-0.308 c 3.468,-6.97 0.202,-13.617 -8.775,-18.086 -6.661,-3.313 -13.396,-4.151 -21.049,-2.743 -2.552,0.468 -5.568,0.319 -8.201,-0.991 -5.884,-2.927 -8.376,-10.348 -5.448,-16.233 1.465,-2.942 4.245,-5.422 8.189,-6.358 11.595,-2.731 24.13,-1.904 37.762,4.877 22.298,11.095 31.773,30.106 21.524,50.704 l -0.153,0.308 c -9.786,19.668 -27.423,20.941 -46,15.949 l -1.849,2.558 c -2.625,3.717 -7.648,5.661 -12.14,3.425 l -1.236,-0.617 z"
               inkscape:connector-curvature="0"
               style="fill:#b2e3f8" />
          </g>
        </g>
      </g>
      <g
         transform="matrix(0.28213293,-0.12320901,0.12320901,0.28213293,191.43768,724.93648)"
         id="g13">
        <path
           sodipodi:nodetypes="cccccccccsccccccccccscccsccccccccscccscscc"
           style="clip-rule:evenodd;fill:#bcbec0;fill-rule:evenodd"
           inkscape:connector-curvature="0"
           d="m 266.072,195.169 c 18.767,0 36.568,-0.005 54.37,0.004 3.328,0 6.659,-0.018 9.987,0.084 4.813,0.145 7.43,2.761 7.479,7.515 0.11,11.318 0.171,22.641 -0.018,33.954 -0.086,5.14 -2.635,7.277 -8.062,7.319 -10.487,0.074 -20.976,0.023 -31.464,0.028 l -5.573,0 0,32.501 5.467,0 c 26.635,0 53.267,-0.023 79.9,0.005 37.895,0.047 67.732,23.557 76.607,60.321 9.818,40.649 -18.372,84.009 -59.566,91.392 -5.532,0.987 -11.221,1.504 -16.836,1.514 -62.427,0.103 -124.851,0.065 -187.275,0.065 -45.187,-0.006 -80.347,-37.754 -77.1,-82.762 2.822,-39.089 36.383,-70.181 76.422,-70.493 27.134,-0.209 54.269,-0.037 81.401,-0.042 l 5.982,0 c 0.103,-2.025 0.262,-3.766 0.266,-5.512 0.028,-10.657 -0.035,-21.31 0.042,-31.961 0.049,-6.779 2.571,-9.294 9.426,-9.339 11.801,-0.08 23.601,-0.023 35.755,-0.023 l 0,-20.239 -5.172,0 c -18.644,0 -37.291,0.019 -55.932,-0.004 -8.102,-0.009 -10.447,-2.356 -10.457,-10.327 -0.014,-8.324 -0.4213,-4.28525 -0.3813,-12.60925 0.027,-5.811 2.477,-8.763 7.158,-8.79 4.674,-0.033 7.067,2.779 7.163,8.79 0.106,6.772 0.4113,1.18725 0.4113,8.60925 z m 19.33,96.183 0,-0.331 -91.369,0 c -0.331,0 -0.666,0.005 -0.998,0 -38.343,-0.768 -63.754,29.607 -64.818,60.167 -1.162,33.344 26.252,63.961 59.552,64.152 64.405,0.362 128.813,0.134 193.221,0.134 2.323,0 4.684,0.047 6.975,-0.293 39.172,-5.788 57.958,-41.729 53.814,-70.147 -4.114,-28.214 -28.479,-52.83 -57.031,-53.5 -33.1,-0.778 -66.229,-0.182 -99.346,-0.182 z"
           id="path15-5" />
        <path
           style="clip-rule:evenodd;fill:#bcbec0;fill-rule:evenodd"
           inkscape:connector-curvature="0"
           d="m 218.027,364.336 c 0,8.683 -0.145,16.64 0.056,24.583 0.116,4.637 -1.561,6.63 -6.381,6.551 -17.31,-0.271 -14.928,1.807 -15.056,-14.689 -0.042,-5.283 -0.007,-10.564 -0.007,-16.444 -8.262,0 -16.022,0.014 -23.784,-0.004 -6.669,-0.019 -7.519,-0.824 -7.509,-7.455 0.023,-17.017 -1.532,-14.121 14.218,-14.357 5.464,-0.083 10.928,-0.014 17.076,-0.014 0,-8.438 -0.021,-16.519 0.007,-24.605 0.018,-6.258 0.237,-6.458 6.471,-6.49 2.994,-0.019 6.009,0.232 8.974,-0.057 4.775,-0.466 6.094,1.816 5.98,6.154 -0.186,7.146 -0.051,14.303 -0.033,21.453 0.003,0.975 0.123,1.947 0.233,3.545 8.288,0 16.37,-0.015 24.452,0.004 5.848,0.014 6.737,0.797 6.733,6.532 -0.02,16.286 1.694,15.397 -14.754,15.3 -5.309,-0.035 -10.617,-0.007 -16.676,-0.007 z"
           id="path17-3" />
        <path
           style="clip-rule:evenodd;fill:#bcbec0;fill-rule:evenodd"
           inkscape:connector-curvature="0"
           d="m 371.251,342.463 c -8.107,-0.186 -14.742,-7.086 -14.63,-15.206 0.107,-7.849 7.523,-14.842 15.396,-14.521 7.729,0.315 14.531,7.444 14.415,15.103 -0.121,8.046 -7.147,14.811 -15.181,14.624 z"
           id="path19-5" />
        <path
           style="clip-rule:evenodd;fill:#bcbec0;fill-rule:evenodd"
           inkscape:connector-curvature="0"
           d="m 340.467,353.152 c 7.965,0.047 14.689,6.63 14.74,14.435 0.059,8.113 -7.054,15.028 -15.347,14.921 -8.16,-0.107 -14.402,-6.783 -14.258,-15.248 0.137,-7.97 6.658,-14.163 14.865,-14.108 z"
           id="path21-6" />
        <path
           style="clip-rule:evenodd;fill:#bcbec0;fill-rule:evenodd"
           inkscape:connector-curvature="0"
           d="m 388.397,357.147 c 8.077,0.094 14.53,6.625 14.498,14.665 -0.038,8.14 -6.812,14.75 -15.058,14.695 -8.25,-0.057 -14.465,-6.648 -14.339,-15.212 0.113,-8.007 6.683,-14.245 14.899,-14.148 z"
           id="path23-2" />
      </g>
      <path
         sodipodi:nodetypes="cc"
         inkscape:connector-curvature="0"
         id="path3452"
         d="M 294.0115,884.73235 C 304.95766,795.69026 431.97814,812.6849 416.48498,700.18027"
         style="fill:none;fill-rule:evenodd;stroke:#d1d3d4;stroke-width:11.92199993;stroke-linecap:butt;stroke-linejoin:miter;stroke-miterlimit:4;stroke-dasharray:none;stroke-opacity:1" />
      <path
         inkscape:connector-curvature="0"
         id="path3413"
         d="m 342.73362,750.68868 c -0.60792,-0.12675 -1.6128,-0.46436 -2.23309,-0.75027 l -1.12781,-0.51985 0,-23.20018 c 0,-12.7601 0.0562,-23.20018 0.12488,-23.20018 0.0687,0 0.64135,0.217 1.27261,0.48222 1.75377,0.73687 3.74987,1.00435 5.96313,0.79909 2.28783,-0.21219 3.46131,-0.45839 6.60639,-1.38614 6.27035,-1.84964 7.73854,-2.16887 9.9752,-2.16887 2.04125,0 4.22001,0.6923 5.45853,1.73444 l 0.48398,0.40724 0.93048,-0.61762 c 1.46098,-0.96975 2.78861,-1.39077 4.67076,-1.4812 2.18935,-0.10525 3.85032,0.20286 8.52638,1.58142 4.95772,1.46161 6.18824,1.74442 8.45149,1.94244 2.28011,0.19948 4.30712,-0.0714 6.06692,-0.8108 0.63125,-0.26522 1.20392,-0.48222 1.27261,-0.48222 0.0687,0 0.12488,10.44008 0.12488,23.20018 l 0,23.20018 -1.12286,0.51756 c -2.61373,1.20475 -6.10262,1.30168 -10.16444,0.2824 -1.25053,-0.31382 -3.46157,-0.93766 -4.91342,-1.38631 -1.45185,-0.44866 -3.42509,-0.96806 -4.385,-1.15423 -3.426,-0.66448 -6.75088,-0.30208 -7.34074,0.80009 -0.2114,0.39498 -1.4349,0.98857 -2.03767,0.98857 -0.60275,0 -1.82626,-0.59359 -2.03765,-0.98857 -0.58778,-1.09827 -4.12791,-1.47758 -7.45753,-0.79906 -0.91546,0.18657 -2.73461,0.67202 -4.04258,1.07879 -1.30798,0.40678 -3.51092,1.03283 -4.89545,1.39121 -2.23101,0.57751 -2.7759,0.65837 -4.791,0.71087 -1.5489,0.0404 -2.62606,-0.0143 -3.379,-0.1712 z m 5.60386,-5.44557 c 0.92008,-0.17917 3.24419,-0.80152 5.16466,-1.38299 5.1728,-1.5662 6.22154,-1.76374 9.41961,-1.77421 1.47385,-0.005 2.91725,0.0442 3.20754,0.10894 l 0.52784,0.11776 -0.004,-17.3329 -0.004,-17.33291 -0.64461,-0.53524 c -1.77547,-1.47422 -3.23752,-1.39629 -9.66239,0.51494 -5.23291,1.55664 -7.43984,2.00157 -10.39407,2.09546 l -1.13684,0.0362 -0.0413,17.90539 -0.0413,17.90539 0.96693,0 c 0.5318,0 1.71972,-0.1466 2.63983,-0.32577 z m 45.56415,-17.57962 -0.0413,-17.90539 -1.8677,-0.097 c -2.89963,-0.15069 -4.63372,-0.51557 -9.82563,-2.06747 -4.04231,-1.20827 -5.29936,-1.48964 -6.65536,-1.48964 -1.22704,0 -1.9317,0.2496 -2.84463,1.00762 l -0.6446,0.53524 -0.004,17.3148 -0.004,17.31479 0.85264,-0.15776 c 0.46895,-0.0868 1.98542,-0.11847 3.36994,-0.0704 2.84455,0.0988 4.28528,0.39977 9.54385,1.99359 3.46628,1.0506 5.53694,1.49426 7.063,1.5133 l 1.09695,0.0138 -0.0413,-17.9054 z m -17.33767,7.18651 0,-1.62406 1.62751,0 1.6275,0 -0.0441,-3.20754 -0.0441,-3.20755 -1.58347,-0.0464 -1.58346,-0.0464 0,-1.53698 0,-1.53699 4.79101,0 4.79101,0 0,4.79102 0,4.791 1.62406,0 1.62408,0 0,1.62408 0,1.62407 -6.41508,0 -6.41508,0 0,-1.62407 z m 5.44063,-14.6417 c -1.35656,-0.49782 -2.19249,-1.66477 -2.19249,-3.06067 0,-3.15801 4.02883,-4.34424 5.80539,-1.70933 0.36711,0.54451 0.44073,0.82999 0.44073,1.70933 0,0.88247 -0.0732,1.16423 -0.44619,1.71757 -0.77482,1.14944 -2.44285,1.77047 -3.60744,1.3431 z"
         style="fill:#b2e3f8;fill-opacity:1" />
    </g>
  </g>
</svg>
