<?xml version="1.0" encoding="UTF-8" standalone="no"?>
<!-- Generator: Adobe Illustrator 16.0.0, SVG Export Plug-In . SVG Version: 6.00 Build 0)  -->

<svg
   xmlns:dc="http://purl.org/dc/elements/1.1/"
   xmlns:cc="http://creativecommons.org/ns#"
   xmlns:rdf="http://www.w3.org/1999/02/22-rdf-syntax-ns#"
   xmlns:svg="http://www.w3.org/2000/svg"
   xmlns="http://www.w3.org/2000/svg"
   xmlns:sodipodi="http://sodipodi.sourceforge.net/DTD/sodipodi-0.dtd"
   xmlns:inkscape="http://www.inkscape.org/namespaces/inkscape"
   version="1.1"
   id="Layer_1"
   x="0px"
   y="0px"
   width="1920px"
   height="1080px"
   viewBox="0 0 1920 1080"
   enable-background="new 0 0 1920 1080"
   xml:space="preserve"
   inkscape:version="0.91 r13725"
   sodipodi:docname="btn_ground_ack.svg"><sodipodi:namedview
     pagecolor="#ffffff"
     bordercolor="#666666"
     borderopacity="1"
     objecttolerance="10"
     gridtolerance="10"
     guidetolerance="10"
     inkscape:pageopacity="0"
     inkscape:pageshadow="2"
     inkscape:window-width="1920"
     inkscape:window-height="1009"
     id="namedview135"
     showgrid="false"
     inkscape:zoom="0.68333333"
     inkscape:cx="847.6252"
     inkscape:cy="450.18596"
     inkscape:window-x="0"
     inkscape:window-y="34"
     inkscape:window-maximized="1"
     inkscape:current-layer="Layer_1" /><metadata
     id="metadata139"><rdf:RDF><cc:Work
         rdf:about=""><dc:format>image/svg+xml</dc:format><dc:type
           rdf:resource="http://purl.org/dc/dcmitype/StillImage" /><dc:title /></cc:Work></rdf:RDF></metadata><defs
     id="defs137" /><rect
     style="fill:#ffffff;fill-opacity:1;stroke:#cccccc;stroke-width:5.32861042;stroke-miterlimit:4;stroke-dasharray:none;stroke-opacity:1"
     id="gameinfo_bg"
     width="582.76147"
     height="769.82751"
     x="971.42053"
     y="134.59845"
     ry="37.226254" /><path
     sodipodi:nodetypes="ccccccccc"
     inkscape:connector-curvature="0"
     id="game_bg"
     d="m 1554.9869,876.04503 -584.78681,0 0,159.54857 587.47371,0 0,-62.78318 308.785,0 0,-288.41422 -311.2316,-0.14615 z"
     style="fill:#ececec;fill-rule:evenodd;stroke:#cccccc;stroke-width:5.4000001;stroke-linecap:butt;stroke-linejoin:miter;stroke-miterlimit:4;stroke-dasharray:none;stroke-opacity:1" /><g
     transform="translate(26,0)"
     id="btn_gameinfo"><rect
       style="fill:#ffffff;fill-opacity:1;stroke:#d1d3d4;stroke-width:8.5;stroke-miterlimit:4;stroke-dasharray:none;stroke-opacity:1"
       id="rect4404"
       width="332.19513"
       height="117.07317"
       x="1083.0732"
       y="894.1463"
       ry="37.222801" /><g
       id="g4419"
       transform="translate(62.903453,-0.36453495)"><g
         transform="translate(398.04878,89.268293)"
         id="g4412"><path
           style="clip-rule:evenodd;fill:#bcbec0;fill-rule:evenodd"
           inkscape:connector-curvature="0"
           d="m 746.24622,826.38352 c 6.84892,0 13.3455,-0.002 19.8417,0 1.21479,0 2.42959,-0.007 3.64439,0.0304 1.75683,0.0545 2.71207,1.00782 2.73085,2.744 0.0391,4.13083 0.0608,8.2628 -0.007,12.39176 -0.0323,1.87591 -0.96199,2.65572 -2.94271,2.67075 -3.82657,0.027 -7.65465,0.008 -11.48197,0.008 -0.65436,0 -1.30909,0 -2.03406,0 0,4.02341 0,7.8312 0,11.86325 0.70356,0 1.3489,0 1.99461,0 9.72026,0 19.4409,-0.009 29.15965,0.002 13.82894,0.0154 24.71854,8.59561 27.95875,22.0136 3.58166,14.83451 -6.70655,30.65843 -21.73976,33.35134 -2.01866,0.36211 -4.09478,0.54918 -6.14386,0.55256 -22.7814,0.0391 -45.56355,0.0252 -68.34495,0.0237 -16.49067,0 -29.32229,-13.77672 -28.13717,-30.20315 1.02961,-14.2643 13.2775,-25.61067 27.89001,-25.72449 9.90244,-0.0766 19.80488,-0.0154 29.70694,-0.0154 0.66074,0 1.32186,0 2.18318,0 0.0376,-0.73924 0.095,-1.37632 0.0969,-2.01339 0.0101,-3.88743 -0.0128,-7.77486 0.0154,-11.66416 0.0177,-2.47242 0.93795,-3.38971 3.43967,-3.40662 4.30739,-0.0308 8.61327,-0.008 13.0495,-0.008 0,-2.44011 0,-4.7743 0,-7.38608 -0.61191,0 -1.25049,0 -1.88756,0 -6.8046,0 -13.60919,0.007 -20.41266,-0.002 -2.95661,-0.005 -3.81267,-0.86133 -3.81605,-3.77023 -0.005,-3.03625 -0.0128,-6.07437 10e-4,-9.11211 0.0101,-2.12045 0.90377,-3.19777 2.61253,-3.20941 1.70612,-0.0101 2.57909,1.01609 2.61403,3.20791 0.0383,2.47391 0.008,4.94783 0.008,7.65615 z m 7.05477,35.10179 c 0,-0.041 0,-0.0815 0,-0.12058 -11.11461,0 -22.22922,0 -33.34496,0 -0.12057,0 -0.24303,10e-4 -0.36436,0 -13.99271,-0.2821 -23.26634,10.80434 -23.65474,21.95764 -0.42372,12.16901 9.58014,23.34221 21.733,23.4102 23.50449,0.1341 47.00936,0.0511 70.5146,0.0511 0.84969,0 1.70951,0.015 2.54529,-0.10706 14.29623,-2.11218 21.15228,-15.22929 19.63961,-25.60202 -1.50178,-10.29461 -10.3934,-19.27975 -20.81383,-19.52278 -12.07849,-0.28398 -24.16937,-0.0665 -36.25461,-0.0665 z"
           id="path11-5" /><path
           style="clip-rule:evenodd;fill:#bcbec0;fill-rule:evenodd"
           inkscape:connector-curvature="0"
           d="m 728.71242,888.11882 c 0,3.17035 -0.053,6.07249 0.0203,8.97275 0.0425,1.69073 -0.56908,2.41946 -2.32855,2.39053 -6.31739,-0.0984 -5.44818,0.65961 -5.49476,-5.36216 -0.0154,-1.92662 -0.003,-3.85362 -0.003,-6.00112 -3.01483,0 -5.84748,0.005 -8.67975,-0.002 -2.43373,-0.005 -2.744,-0.29901 -2.74062,-2.71846 0.008,-6.21185 -0.55894,-5.15331 5.18899,-5.24008 1.99387,-0.0304 3.98773,-0.005 6.23138,-0.005 0,-3.07869 -0.008,-6.03041 0.003,-8.97988 0.007,-2.28348 0.0864,-2.35635 2.36198,-2.36874 1.09234,-0.007 2.19257,0.0834 3.27477,-0.0222 1.74256,-0.1679 2.22413,0.6645 2.18281,2.24779 -0.068,2.60802 -0.0188,5.2198 -0.012,7.82782 7.5e-4,0.35685 0.0451,0.7122 0.0849,1.29481 3.02422,0 5.97407,-0.005 8.92354,10e-4 2.13397,0.003 2.45852,0.29037 2.45702,2.38414 -0.007,5.94139 0.61829,5.61872 -5.38433,5.58116 -1.93714,-0.0101 -3.87428,-10e-4 -6.08563,-10e-4 z"
           id="path13" /><path
           style="clip-rule:evenodd;fill:#bcbec0;fill-rule:evenodd"
           inkscape:connector-curvature="0"
           d="m 784.6318,880.13775 c -2.95999,-0.0699 -5.38095,-2.58624 -5.34038,-5.54923 0.0391,-2.86458 2.74738,-5.41663 5.6191,-5.29943 2.82025,0.11569 5.30431,2.71695 5.26186,5.51204 -0.0458,2.93595 -2.60952,5.40461 -5.54058,5.33662 z"
           id="path15-3" /><path
           style="clip-rule:evenodd;fill:#bcbec0;fill-rule:evenodd"
           inkscape:connector-curvature="0"
           d="m 773.39548,884.03719 c 2.9074,0.0188 5.36066,2.42096 5.38095,5.26713 0.0207,2.96337 -2.57534,5.48612 -5.60182,5.44556 -2.9784,-0.0376 -5.25511,-2.47392 -5.20252,-5.56463 0.0496,-2.90853 2.42997,-5.16646 5.42339,-5.14806 z"
           id="path17-5" /><path
           style="clip-rule:evenodd;fill:#bcbec0;fill-rule:evenodd"
           inkscape:connector-curvature="0"
           d="m 790.88984,885.49691 c 2.94647,0.0338 5.30282,2.41795 5.28929,5.35202 -0.0135,2.96825 -2.48556,5.38094 -5.49325,5.36066 -3.0107,-0.0184 -5.27915,-2.42434 -5.2352,-5.54886 0.0424,-2.92468 2.44011,-5.19989 5.43916,-5.16382 z"
           id="path19-6" /></g><path
         style="clip-rule:evenodd;fill:#b2e3f8;fill-rule:evenodd"
         inkscape:connector-curvature="0"
         d="m 1254.9912,966.78454 c 0.9124,-1.15169 1.7974,-2.26657 2.6793,-3.38446 5.1706,-6.54503 10.3307,-13.1002 15.5148,-19.63659 2.0559,-2.59262 5.5151,-3.07531 8.1689,-1.20128 2.6287,1.85864 3.2913,5.60708 1.3136,8.15725 -3.9265,5.06316 -7.9266,10.07073 -11.9008,15.09632 -3.5678,4.51474 -7.1513,9.01895 -10.7078,13.54345 -0.9616,1.22344 -2.1099,2.17154 -3.6444,2.46867 -2.2666,0.44174 -4.2563,-0.25656 -5.7802,-1.94541 -3.1982,-3.53921 -6.3156,-7.15318 -9.4611,-10.7416 -0.574,-0.65436 -1.1757,-1.29481 -1.6821,-2.00175 -1.9285,-2.69292 -1.4939,-6.18142 0.9785,-8.13697 2.6591,-2.10354 6.0519,-1.77562 8.3087,0.79522 1.8518,2.11218 3.7142,4.21535 5.5747,6.32228 0.1909,0.21449 0.3986,0.41507 0.6379,0.66487 z"
         id="path21-2" /></g></g><g
     id="btn_gameinfo_joint_7"><text
       id="text5509"
       font-size="62"
       style="font-size:55.98649216px;font-family:GothamRounded-Medium;fill:#a7a9ac"
       x="1024.3612"
       y="240.6545">Jogo terminou</text>
<path
       sodipodi:nodetypes="cc"
       inkscape:connector-curvature="0"
       id="path5547"
       d="m 990.65137,271.89826 544.29983,0"
       style="fill:none;fill-rule:evenodd;stroke:#000000;stroke-width:1px;stroke-linecap:butt;stroke-linejoin:miter;stroke-opacity:1" /></g><g
     id="btn_gameinfo_joint_6"
     inkscape:label="#btn_gameinfo_joint_6"><text
       y="334.61404"
       x="1024.3612"
       style="font-size:55.98649216px;font-family:GothamRounded-Medium;fill:#a7a9ac"
       font-size="62"
       id="text5531">Jogo vai terminar</text>
<path
       style="fill:none;fill-rule:evenodd;stroke:#000000;stroke-width:1px;stroke-linecap:butt;stroke-linejoin:miter;stroke-opacity:1"
       d="m 990.65137,371.89826 544.29983,0"
       id="path5553"
       inkscape:connector-curvature="0"
       sodipodi:nodetypes="cc" /></g><g
     id="btn_gameinfo_joint_5"
     inkscape:label="#btn_gameinfo_joint_5"><text
       id="text5541"
       font-size="62"
       style="font-size:55.98649216px;font-family:GothamRounded-Medium;fill:#a7a9ac"
       x="1017.7729"
       y="435.12085">Só mais 1min</text>
<path
       sodipodi:nodetypes="cc"
       inkscape:connector-curvature="0"
       id="path5555"
       d="m 990.65137,461.89826 544.29983,0"
       style="fill:none;fill-rule:evenodd;stroke:#000000;stroke-width:1px;stroke-linecap:butt;stroke-linejoin:miter;stroke-opacity:1" /></g><g
     id="btn_gameinfo_joint_4"><text
       y="523.65405"
       x="1017.7729"
       style="font-size:55.98649216px;font-family:GothamRounded-Medium;fill:#a7a9ac"
       font-size="62"
       id="text5543">Só mais um pouco</text>
<path
       style="fill:none;fill-rule:evenodd;stroke:#000000;stroke-width:1px;stroke-linecap:butt;stroke-linejoin:miter;stroke-opacity:1"
       d="m 990.65137,549.89826 544.29983,0"
       id="path5557"
       inkscape:connector-curvature="0"
       sodipodi:nodetypes="cc" /></g><g
     id="btn_gameinfo_joint_3"><text
       id="text5505"
       font-size="62"
       style="font-size:55.98649216px;font-family:GothamRounded-Medium;fill:#a7a9ac"
       x="1024.3612"
       y="615.63165">Jogo em pausa</text>
<path
       sodipodi:nodetypes="cc"
       inkscape:connector-curvature="0"
       id="path5559"
       d="m 990.65137,649.89826 544.29983,0"
       style="fill:none;fill-rule:evenodd;stroke:#000000;stroke-width:1px;stroke-linecap:butt;stroke-linejoin:miter;stroke-opacity:1" /></g><g
     id="btn_gameinfo_joint_2"><text
       y="709.59125"
       x="1024.3612"
       style="font-size:55.98649216px;font-family:GothamRounded-Medium;fill:#a7a9ac"
       font-size="62"
       id="text697">Jogo começou</text>
<path
       style="fill:none;fill-rule:evenodd;stroke:#000000;stroke-width:1px;stroke-linecap:butt;stroke-linejoin:miter;stroke-opacity:1"
       d="m 990.65137,741.89826 544.29983,0"
       id="path5561"
       inkscape:connector-curvature="0"
       sodipodi:nodetypes="cc" /></g><g
     id="btn_gameinfo_joint_1"
     inkscape:label="#btn_gameinfo_joint_1"><text
       id="text5533"
       font-size="62"
       style="font-size:55.98649216px;font-family:GothamRounded-Medium;fill:#a7a9ac"
       x="1024.3612"
       y="804.41193">Jogo vai começar</text>
<path
       sodipodi:nodetypes="cc"
       inkscape:connector-curvature="0"
       id="path5563"
       d="m 990.65137,841.89826 544.29983,0"
       style="fill:none;fill-rule:evenodd;stroke:#000000;stroke-width:1px;stroke-linecap:butt;stroke-linejoin:miter;stroke-opacity:1" /></g><rect
     ry="37.226254"
     y="134.59845"
     x="343.42053"
     height="769.82751"
     width="582.76147"
     id="afterpersuade_bg"
     style="fill:#ffffff;fill-opacity:1;stroke:#cccccc;stroke-width:5.32861042;stroke-miterlimit:4;stroke-dasharray:none;stroke-opacity:1" /><path
     style="fill:#ececec;fill-rule:evenodd;stroke:#cccccc;stroke-width:5.4000001;stroke-linecap:butt;stroke-linejoin:miter;stroke-miterlimit:4;stroke-dasharray:none;stroke-opacity:1"
     d="m 341.672,876.04503 584.7868,0 0,159.54857 -587.4737,0 0,-62.78318 -308.78501,0 0,-288.41422 311.23161,-0.14615 z"
     id="invite_bg"
     inkscape:connector-curvature="0"
     sodipodi:nodetypes="ccccccccc"
     inkscape:label="#invite_bg" /><g
     id="g5897"><text
       y="240.6545"
       x="393.41754"
       style="font-size:55.98649216px;font-family:GothamRounded-Medium;fill:#a7a9ac"
       font-size="62"
       id="text5764">EMPTY</text>
<path
       style="fill:none;fill-rule:evenodd;stroke:#000000;stroke-width:1px;stroke-linecap:butt;stroke-linejoin:miter;stroke-opacity:1"
       d="m 361.7077,271.89826 544.29983,0"
       id="path5766"
       inkscape:connector-curvature="0"
       sodipodi:nodetypes="cc" /></g><g
     id="g5901"><text
       id="text5770"
       font-size="62"
       style="font-size:55.98649216px;font-family:GothamRounded-Medium;fill:#a7a9ac"
       x="393.41754"
       y="334.61404">EMPTY</text>
<path
       sodipodi:nodetypes="cc"
       inkscape:connector-curvature="0"
       id="path5772"
       d="m 361.7077,371.89826 544.29983,0"
       style="fill:none;fill-rule:evenodd;stroke:#000000;stroke-width:1px;stroke-linecap:butt;stroke-linejoin:miter;stroke-opacity:1" /></g><g
     id="btn_afterpersuade_joint_5"><text
       y="435.12085"
       x="386.82922"
       style="font-size:55.98649216px;font-family:GothamRounded-Medium;fill:#a7a9ac"
       font-size="62"
       id="text5776">Siga-me.</text>
<path
       style="fill:none;fill-rule:evenodd;stroke:#000000;stroke-width:1px;stroke-linecap:butt;stroke-linejoin:miter;stroke-opacity:1"
       d="m 361.7077,461.89826 544.29983,0"
       id="path5778"
       inkscape:connector-curvature="0"
       sodipodi:nodetypes="cc" /></g><g
     id="btn_afterpersuade_joint_4"><text
       id="text5782"
       font-size="62"
       style="font-size:55.98649216px;font-family:GothamRounded-Medium;fill:#a7a9ac"
       x="386.82922"
       y="523.65405">Podemos ir, certo?</text>
<path
       sodipodi:nodetypes="cc"
       inkscape:connector-curvature="0"
       id="path5784"
       d="m 361.7077,549.89826 544.29983,0"
       style="fill:none;fill-rule:evenodd;stroke:#000000;stroke-width:1px;stroke-linecap:butt;stroke-linejoin:miter;stroke-opacity:1" /></g><g
     id="btn_afterpersuade_joint_3"><text
       y="615.63165"
       x="393.41754"
       style="font-size:55.98649216px;font-family:GothamRounded-Medium;fill:#a7a9ac"
       font-size="62"
       id="text5788">Boa, vamos jogar!</text>
<path
       style="fill:none;fill-rule:evenodd;stroke:#000000;stroke-width:1px;stroke-linecap:butt;stroke-linejoin:miter;stroke-opacity:1"
       d="m 361.7077,649.89826 544.29983,0"
       id="path5790"
       inkscape:connector-curvature="0"
       sodipodi:nodetypes="cc" /></g><g
     id="btn_afterpersuade_joint_2"
     inkscape:label="#btn_afterpersuade_joint_2"><text
       id="text5794"
       font-size="62"
       style="font-size:55.98649216px;font-family:GothamRounded-Medium;fill:#a7a9ac"
       x="393.41754"
       y="709.59125">Oh, não quer?</text>
<path
       sodipodi:nodetypes="cc"
       inkscape:connector-curvature="0"
       id="path5796"
       d="m 361.7077,741.89826 544.29983,0"
       style="fill:none;fill-rule:evenodd;stroke:#000000;stroke-width:1px;stroke-linecap:butt;stroke-linejoin:miter;stroke-opacity:1" /></g><g
     id="btn_afterpersuade_joint_1"><text
       y="804.41193"
       x="393.41754"
       style="font-size:55.98649216px;font-family:GothamRounded-Medium;fill:#a7a9ac"
       font-size="62"
       id="text5800">Quer jogar, certo?</text>
<path
       style="fill:none;fill-rule:evenodd;stroke:#000000;stroke-width:1px;stroke-linecap:butt;stroke-linejoin:miter;stroke-opacity:1"
       d="m 361.7077,841.89826 544.29983,0"
       id="path5802"
       inkscape:connector-curvature="0"
       sodipodi:nodetypes="cc" /></g><g
     id="g5943"><rect
       ry="37.222801"
       y="894.1463"
       x="455.39053"
       height="117.07317"
       width="332.19513"
       id="rect5744"
       style="fill:#ffffff;fill-opacity:1;stroke:#d1d3d4;stroke-width:8.5;stroke-miterlimit:4;stroke-dasharray:none;stroke-opacity:1" /><g
       transform="matrix(0.62476023,0,0,0.62476023,111.06212,418.71938)"
       id="g5748"><path
         style="clip-rule:evenodd;fill:#bcbec0;fill-rule:evenodd"
         inkscape:connector-curvature="0"
         d="m 746.24622,826.38352 c 6.84892,0 13.3455,-0.002 19.8417,0 1.21479,0 2.42959,-0.007 3.64439,0.0304 1.75683,0.0545 2.71207,1.00782 2.73085,2.744 0.0391,4.13083 0.0608,8.2628 -0.007,12.39176 -0.0323,1.87591 -0.96199,2.65572 -2.94271,2.67075 -3.82657,0.027 -7.65465,0.008 -11.48197,0.008 -0.65436,0 -1.30909,0 -2.03406,0 0,4.02341 0,7.8312 0,11.86325 0.70356,0 1.3489,0 1.99461,0 9.72026,0 19.4409,-0.009 29.15965,0.002 13.82894,0.0154 24.71854,8.59561 27.95875,22.0136 3.58166,14.83451 -6.70655,30.65843 -21.73976,33.35134 -2.01866,0.36211 -4.09478,0.54918 -6.14386,0.55256 -22.7814,0.0391 -45.56355,0.0252 -68.34495,0.0237 -16.49067,0 -29.32229,-13.77672 -28.13717,-30.20315 1.02961,-14.2643 13.2775,-25.61067 27.89001,-25.72449 9.90244,-0.0766 19.80488,-0.0154 29.70694,-0.0154 0.66074,0 1.32186,0 2.18318,0 0.0376,-0.73924 0.095,-1.37632 0.0969,-2.01339 0.0101,-3.88743 -0.0128,-7.77486 0.0154,-11.66416 0.0177,-2.47242 0.93795,-3.38971 3.43967,-3.40662 4.30739,-0.0308 8.61327,-0.008 13.0495,-0.008 0,-2.44011 0,-4.7743 0,-7.38608 -0.61191,0 -1.25049,0 -1.88756,0 -6.8046,0 -13.60919,0.007 -20.41266,-0.002 -2.95661,-0.005 -3.81267,-0.86133 -3.81605,-3.77023 -0.005,-3.03625 -0.0128,-6.07437 10e-4,-9.11211 0.0101,-2.12045 0.90377,-3.19777 2.61253,-3.20941 1.70612,-0.0101 2.57909,1.01609 2.61403,3.20791 0.0383,2.47391 0.008,4.94783 0.008,7.65615 z m 7.05477,35.10179 c 0,-0.041 0,-0.0815 0,-0.12058 -11.11461,0 -22.22922,0 -33.34496,0 -0.12057,0 -0.24303,10e-4 -0.36436,0 -13.99271,-0.2821 -23.26634,10.80434 -23.65474,21.95764 -0.42372,12.16901 9.58014,23.34221 21.733,23.4102 23.50449,0.1341 47.00936,0.0511 70.5146,0.0511 0.84969,0 1.70951,0.015 2.54529,-0.10706 14.29623,-2.11218 21.15228,-15.22929 19.63961,-25.60202 -1.50178,-10.29461 -10.3934,-19.27975 -20.81383,-19.52278 -12.07849,-0.28398 -24.16937,-0.0665 -36.25461,-0.0665 z"
         id="path5750" /><path
         style="clip-rule:evenodd;fill:#bcbec0;fill-rule:evenodd"
         inkscape:connector-curvature="0"
         d="m 728.71242,888.11882 c 0,3.17035 -0.053,6.07249 0.0203,8.97275 0.0425,1.69073 -0.56908,2.41946 -2.32855,2.39053 -6.31739,-0.0984 -5.44818,0.65961 -5.49476,-5.36216 -0.0154,-1.92662 -0.003,-3.85362 -0.003,-6.00112 -3.01483,0 -5.84748,0.005 -8.67975,-0.002 -2.43373,-0.005 -2.744,-0.29901 -2.74062,-2.71846 0.008,-6.21185 -0.55894,-5.15331 5.18899,-5.24008 1.99387,-0.0304 3.98773,-0.005 6.23138,-0.005 0,-3.07869 -0.008,-6.03041 0.003,-8.97988 0.007,-2.28348 0.0864,-2.35635 2.36198,-2.36874 1.09234,-0.007 2.19257,0.0834 3.27477,-0.0222 1.74256,-0.1679 2.22413,0.6645 2.18281,2.24779 -0.068,2.60802 -0.0188,5.2198 -0.012,7.82782 7.5e-4,0.35685 0.0451,0.7122 0.0849,1.29481 3.02422,0 5.97407,-0.005 8.92354,10e-4 2.13397,0.003 2.45852,0.29037 2.45702,2.38414 -0.007,5.94139 0.61829,5.61872 -5.38433,5.58116 -1.93714,-0.0101 -3.87428,-10e-4 -6.08563,-10e-4 z"
         id="path5752" /><path
         style="clip-rule:evenodd;fill:#bcbec0;fill-rule:evenodd"
         inkscape:connector-curvature="0"
         d="m 784.6318,880.13775 c -2.95999,-0.0699 -5.38095,-2.58624 -5.34038,-5.54923 0.0391,-2.86458 2.74738,-5.41663 5.6191,-5.29943 2.82025,0.11569 5.30431,2.71695 5.26186,5.51204 -0.0458,2.93595 -2.60952,5.40461 -5.54058,5.33662 z"
         id="path5754" /><path
         style="clip-rule:evenodd;fill:#bcbec0;fill-rule:evenodd"
         inkscape:connector-curvature="0"
         d="m 773.39548,884.03719 c 2.9074,0.0188 5.36066,2.42096 5.38095,5.26713 0.0207,2.96337 -2.57534,5.48612 -5.60182,5.44556 -2.9784,-0.0376 -5.25511,-2.47392 -5.20252,-5.56463 0.0496,-2.90853 2.42997,-5.16646 5.42339,-5.14806 z"
         id="path5756" /><path
         style="clip-rule:evenodd;fill:#bcbec0;fill-rule:evenodd"
         inkscape:connector-curvature="0"
         d="m 790.88984,885.49691 c 2.94647,0.0338 5.30282,2.41795 5.28929,5.35202 -0.0135,2.96825 -2.48556,5.38094 -5.49325,5.36066 -3.0107,-0.0184 -5.27915,-2.42434 -5.2352,-5.54886 0.0424,-2.92468 2.44011,-5.19989 5.43916,-5.16382 z"
         id="path5758" /></g><g
       transform="matrix(0.64384101,0,0,0.64384101,406.99972,427.85231)"
       id="g5833"><path
         style="clip-rule:evenodd;fill:#bcbec0;fill-rule:evenodd"
         inkscape:connector-curvature="0"
         d="m 176.499,814.892 c -1.937,2.324 -4.023,2.758 -7.183,2.83 -3.159,0.073 -4.328,0.563 -8.93,-0.421 -4.602,-0.984 -6.903,-1.778 -9.949,-3.749 -0.432,-0.277 -0.877,-0.533 -1.748,-0.57 0.182,0.637 0.364,1.271 0.547,1.907 2.842,9.913 3.678,19.815 -0.146,29.693 -0.22,0.567 -0.42,1.173 -0.775,1.649 -2.716,3.652 -2.972,7.84 -2.89,12.177 0.109,5.896 0.26,11.819 -1.283,17.59 -0.448,1.68 -1.074,3.366 -1.933,4.871 -2.845,4.989 -9.468,4.962 -12.479,0.038 -2.06,-3.368 -2.492,-7.143 -2.588,-10.946 -0.134,-5.291 0.023,-10.59 -0.164,-15.878 -0.057,-1.609 -0.51,-3.395 -1.347,-4.752 -4.547,-7.369 -6.627,-15.549 -7.804,-23.946 -1.528,-10.901 -0.598,-21.632 3.517,-31.964 2.378,-5.973 5.677,-11.389 9.853,-16.262 3.406,-3.977 9.586,-4.325 13.505,-0.888 2.04,1.788 2.858,3.948 2.103,6.55 -1.049,3.614 -0.066,6.771 1.844,9.822 5.123,8.195 12.477,12.337 22.152,12.424 3.262,0.029 5.313,1.685 6.385,4.696 0.242,0.679 0.819,1.374 1.432,1.759 3.586,2.267 4.625,4.693 3.395,8.785 -1.44,4.781 -2.035,9.654 -2.031,14.631 0.01,12.422 -0.016,33.688 -0.033,46.108 0,0.606 0.17,1.407 -0.143,1.78 -0.637,0.76 -1.535,1.757 -2.349,1.778 -0.794,0.021 -1.813,-0.916 -2.362,-1.694 -0.403,-0.57 -0.273,-1.564 -0.273,-2.371 -0.014,-15.135 0.01,-39.116 -0.038,-54.252 -0.007,-1.819 0.519,-3.231 1.751,-4.571 2.223,-2.418 2.198,-4.991 -0.036,-6.824 z"
         id="path5835" /><path
         style="clip-rule:evenodd;fill:#bcbec0;fill-rule:evenodd"
         inkscape:connector-curvature="0"
         d="m 153.21,739.388 c 9.399,0.137 16.132,8.659 15.622,17.096 -0.582,9.641 -8.385,16.574 -17.533,15.925 -9.173,-0.651 -16.305,-8.705 -15.525,-17.535 0.836,-9.507 8.384,-16.21 17.436,-15.486 z"
         id="path5837" /></g><g
       transform="translate(-11.382695,8.2783234)"
       id="g5877"><path
         style="fill:#b2e3f8;fill-opacity:1"
         d="m 687.43875,950.50125 c -4.20197,-0.25778 -13.10736,-1.55632 -19.18374,-2.79727 -0.36256,-0.0741 -0.49225,-0.02 -0.95459,0.39768 -0.29427,0.26586 -0.92073,0.66612 -1.39215,0.88948 l -0.85712,0.40611 -4.27047,0.0409 c -3.68405,0.0353 -4.38204,0.0109 -5.083,-0.17715 -2.04355,-0.54829 -3.63063,-2.29774 -4.03927,-4.45248 -0.0805,-0.42461 -0.1304,-4.50632 -0.1304,-10.67186 0,-10.71959 -0.005,-10.62829 0.66862,-12.06149 0.43237,-0.91983 1.61356,-2.05149 2.6537,-2.54241 l 0.88344,-0.41696 4.65869,0 4.65869,0 0.85712,0.40611 c 0.47142,0.22336 1.09287,0.61909 1.38101,0.8794 l 0.52388,0.4733 0.81893,-0.34442 c 2.39911,-1.00896 4.60005,-3.15606 6.80151,-6.63513 0.92022,-1.45426 2.48782,-4.69151 3.60933,-7.45361 0.75412,-1.85726 0.98893,-2.30039 1.53655,-2.89981 1.55627,-1.70347 4.02727,-2.02803 6.31589,-0.8296 1.03295,0.54089 1.65114,1.20205 2.20941,2.36298 0.37415,0.77804 0.40356,0.93825 0.39205,2.13523 -0.013,1.35346 -0.085,1.71321 -1.75437,8.7694 -0.3665,1.54915 -0.643,2.83978 -0.61445,2.86807 0.0286,0.0283 0.57602,-0.007 1.21659,-0.0781 1.85719,-0.20653 7.30089,-0.0713 8.47623,0.21057 2.58592,0.62016 4.16538,2.13749 4.73505,4.54877 0.40358,1.70826 0.10992,6.55257 -1.05061,17.33124 -0.24545,2.27973 -0.53985,4.46349 -0.65421,4.85281 -0.70239,2.39112 -2.27966,3.84347 -4.9271,4.53688 -1.18192,0.30955 -4.64236,0.42576 -7.48521,0.25136 z m 7.21669,-3.61352 c 0.48163,-0.15648 1.0725,-0.45731 1.31304,-0.6685 0.85764,-0.75302 0.84936,-0.70523 1.81433,-10.47453 0.31987,-3.23844 0.64827,-6.72832 0.72976,-7.75529 0.29833,-3.75962 -0.18389,-5.12809 -2.00528,-5.69066 -1.81292,-0.55996 -5.30901,-0.60375 -10.13493,-0.12695 -1.67665,0.16566 -2.20961,0.10022 -2.60414,-0.31973 -0.61916,-0.65907 -0.60335,-0.87118 0.36763,-4.93277 1.32563,-5.54516 2.09429,-9.11962 2.09471,-9.74106 5.2e-4,-0.70709 -0.40009,-1.35806 -1.02614,-1.66755 -0.65219,-0.32241 -1.85072,-0.32624 -2.20343,-0.007 -0.14254,0.12899 -0.65084,1.20632 -1.12954,2.39405 -2.10329,5.2185 -3.93209,8.44888 -6.45001,11.39319 -1.47777,1.72803 -3.69238,3.41573 -5.38661,4.105 l -0.71321,0.29015 -0.0331,10.41525 -0.0331,10.41524 0.74486,0.13681 c 11.02848,2.02558 15.88692,2.61857 20.93252,2.55486 2.5204,-0.0318 2.94742,-0.0686 3.72267,-0.32046 z"
         id="path5817"
         inkscape:connector-curvature="0" /><path
         style="fill:#ffffff;fill-opacity:1;stroke:#ffffff;stroke-width:0.81811154;stroke-miterlimit:4;stroke-dasharray:none;stroke-opacity:1"
         d="m 687.88924,947.08797 c -2.11822,-0.11331 -4.87791,-0.40304 -7.72661,-0.81121 -3.03878,-0.4354 -10.77116,-1.75505 -10.81263,-1.84535 -0.0115,-0.0251 0.002,-4.68338 0.0293,-10.35176 l 0.0503,-10.30617 1.23807,-0.63827 c 4.43957,-2.28875 7.64672,-6.57292 11.14364,-14.88583 1.21587,-2.89039 1.20438,-2.87538 2.20078,-2.87538 1.01473,0 1.75391,0.45646 2.01333,1.2433 0.21461,0.65089 -0.0794,2.24484 -1.6887,9.15415 -1.11892,4.80407 -1.19424,5.57089 -0.60186,6.12775 0.47534,0.44685 0.92391,0.4584 5.67717,0.14621 2.59794,-0.17062 3.58855,-0.17825 4.84807,-0.0373 2.12423,0.23766 2.68796,0.41874 3.34307,1.07385 1.0786,1.0786 1.11489,2.10363 0.35674,10.07731 -0.96281,10.12616 -1.19497,11.87382 -1.67739,12.62678 -0.7267,1.13427 -3.49637,1.56389 -8.39331,1.30195 z"
         id="path5857"
         inkscape:connector-curvature="0" /></g><g
       transform="translate(47.600359,-3.1043713)"
       id="g5873"><path
         inkscape:connector-curvature="0"
         id="path5819"
         d="m 687.18552,954.77951 c -4.1401,0.25399 -12.91436,1.5334 -18.90127,2.75608 -0.35723,0.073 -0.48501,0.0197 -0.94054,-0.39183 -0.28994,-0.26193 -0.90718,-0.65631 -1.37165,-0.87638 l -0.8445,-0.40012 -4.20759,-0.0403 c -3.62981,-0.0347 -4.31752,-0.0108 -5.00816,0.17453 -2.01347,0.54023 -3.57718,2.26391 -3.97981,4.38693 -0.0793,0.41835 -0.12847,4.43997 -0.12847,10.51474 0,10.56173 -0.005,10.47179 0.65877,11.88388 0.42601,0.9063 1.58981,2.02129 2.61463,2.50499 l 0.87043,0.41082 4.5901,0 4.5901,0 0.8445,-0.40012 c 0.46447,-0.22007 1.07677,-0.60999 1.36067,-0.86647 l 0.51617,-0.46633 0.80688,0.33934 c 2.36378,0.99412 4.53231,3.10961 6.70136,6.53745 0.90666,1.43285 2.45119,4.62243 3.55619,7.34386 0.74301,1.82992 0.97436,2.26652 1.51392,2.85712 1.53336,1.6784 3.96798,1.9982 6.2229,0.8174 1.01774,-0.5329 1.62683,-1.1843 2.17688,-2.32821 0.36863,-0.76657 0.39762,-0.92443 0.38628,-2.10379 -0.0128,-1.33353 -0.0837,-1.68798 -1.72855,-8.64028 -0.3611,-1.52633 -0.63353,-2.79797 -0.6054,-2.82585 0.0281,-0.0279 0.56754,0.007 1.19868,0.0769 1.82985,0.20351 7.1934,0.0703 8.35143,-0.20746 2.54784,-0.61103 4.10404,-2.10603 4.66533,-4.48181 0.39764,-1.6831 0.1083,-6.45608 -1.03514,-17.07605 -0.24184,-2.24616 -0.5319,-4.39776 -0.64458,-4.78135 -0.69205,-2.35592 -2.24609,-3.78688 -4.85455,-4.47007 -1.16452,-0.30501 -4.57402,-0.41951 -7.37501,-0.24767 z m 7.11044,3.56031 c 0.47454,0.15418 1.0567,0.45057 1.2937,0.65866 0.84502,0.74193 0.83686,0.69485 1.78762,10.32031 0.31517,3.19075 0.63873,6.62925 0.71902,7.64111 0.29394,3.70426 -0.18118,5.05257 -1.97575,5.60686 -1.78623,0.55171 -5.23085,0.59486 -9.98572,0.12508 -1.65196,-0.16322 -2.17707,-0.0987 -2.56579,0.31502 -0.61004,0.64937 -0.59447,0.85836 0.36221,4.86015 1.30612,5.46351 2.06346,8.98534 2.06388,9.59763 5.1e-4,0.69668 -0.39421,1.33807 -1.01104,1.643 -0.64258,0.31766 -1.82346,0.32144 -2.17098,0.007 -0.14045,-0.12709 -0.64126,-1.18856 -1.11292,-2.3588 -2.07231,-5.14165 -3.87419,-8.32446 -6.35503,-11.22544 -1.45601,-1.70259 -3.63802,-3.36544 -5.3073,-4.04456 l -0.70271,-0.28588 -0.0326,-10.26189 -0.0326,-10.26189 0.73389,-0.13479 c 10.8661,-1.99576 15.65301,-2.58001 20.62432,-2.51725 2.48329,0.0314 2.90403,0.0676 3.66786,0.31574 z"
         style="fill:#b2e3f8;fill-opacity:1" /><path
         style="fill:#ffffff;fill-opacity:1;stroke:#ffffff;stroke-width:0.80606586;stroke-miterlimit:4;stroke-dasharray:none;stroke-opacity:1"
         d="m 682.94864,999.0401 c -0.17069,-0.14368 -0.85163,-1.53478 -1.5132,-3.09137 -2.43256,-5.72344 -4.68028,-9.33441 -7.34919,-11.80648 -1.07288,-0.99375 -2.81578,-2.17618 -3.95994,-2.68652 l -0.78472,-0.35002 0.0384,-10.19364 0.0384,-10.19364 1.0449,-0.19403 c 3.09927,-0.57553 9.10921,-1.55113 11.19536,-1.81735 3.66682,-0.46795 5.57478,-0.60198 8.58906,-0.60337 2.9502,-0.001 4.06022,0.16758 5.027,0.76508 0.9512,0.58787 1.0809,1.13105 1.68365,7.05078 0.91811,9.01689 1.08692,10.96507 1.10116,12.70768 0.0129,1.58536 -0.0249,1.87212 -0.32965,2.49467 -0.74092,1.51385 -2.04917,1.82602 -7.11494,1.69777 -1.97038,-0.0499 -4.26848,-0.13127 -5.10689,-0.18085 l -1.52438,-0.0902 -0.45347,0.45347 c -0.56168,0.56168 -0.57244,0.91572 -0.0916,3.01404 0.19756,0.86205 0.72978,3.17949 1.18271,5.14986 1.45758,6.34076 1.51129,6.84199 0.80415,7.5044 -0.69434,0.65041 -1.92499,0.8341 -2.47675,0.36968 z"
         id="path5863"
         inkscape:connector-curvature="0" /></g><path
       inkscape:connector-curvature="0"
       id="path5881"
       d="m 639.50048,995.14719 113.82695,-86.9224"
       style="fill:#b2e3f8;fill-rule:evenodd;stroke:#b2e3f8;stroke-width:1px;stroke-linecap:butt;stroke-linejoin:miter;stroke-opacity:1;fill-opacity:1" /></g></svg>