<?xml version="1.0" encoding="UTF-8" standalone="no"?>
<!-- Created with Inkscape (http://www.inkscape.org/) -->

<svg
   xmlns:dc="http://purl.org/dc/elements/1.1/"
   xmlns:cc="http://creativecommons.org/ns#"
   xmlns:rdf="http://www.w3.org/1999/02/22-rdf-syntax-ns#"
   xmlns:svg="http://www.w3.org/2000/svg"
   xmlns="http://www.w3.org/2000/svg"
   xmlns:sodipodi="http://sodipodi.sourceforge.net/DTD/sodipodi-0.dtd"
   xmlns:inkscape="http://www.inkscape.org/namespaces/inkscape"
   width="541.86664mm"
   height="304.80026mm"
   viewBox="0 0 1919.9999 1080.0009"
   id="svg7509"
   version="1.1"
   inkscape:version="0.91 r13725"
   sodipodi:docname="btn_motivation.svg">
  <defs
     id="defs7511" />
  <sodipodi:namedview
     id="base"
     pagecolor="#ffffff"
     bordercolor="#666666"
     borderopacity="1.0"
     inkscape:pageopacity="0.0"
     inkscape:pageshadow="2"
     inkscape:zoom="0.49497475"
     inkscape:cx="1097.4147"
     inkscape:cy="742.6987"
     inkscape:document-units="px"
     inkscape:current-layer="layer1"
     showgrid="false"
     fit-margin-top="0"
     fit-margin-left="0"
     fit-margin-right="0"
     fit-margin-bottom="0"
     inkscape:window-width="1920"
     inkscape:window-height="1016"
     inkscape:window-x="0"
     inkscape:window-y="27"
     inkscape:window-maximized="1" />
  <metadata
     id="metadata7514">
    <rdf:RDF>
      <cc:Work
         rdf:about="">
        <dc:format>image/svg+xml</dc:format>
        <dc:type
           rdf:resource="http://purl.org/dc/dcmitype/StillImage" />
        <dc:title></dc:title>
      </cc:Work>
    </rdf:RDF>
  </metadata>
  <g
     inkscape:label="Layer 1"
     inkscape:groupmode="layer"
     id="layer1"
     transform="translate(880,247.63824)">
    <g
       id="btn_motivation_icon">
      <path
         id="path501"
         d="m 733.64,246.1247 c 0,-61.075 49.514,-110.586 110.59,-110.586 61.077,0 110.588,49.511 110.588,110.586 0,61.078 -49.511,110.592 -110.588,110.592 -61.077,0 -110.59,-49.514 -110.59,-110.592 z"
         stroke-miterlimit="10"
         style="fill:#ffffff;stroke:#d1d3d4;stroke-width:10;stroke-miterlimit:10"
         inkscape:connector-curvature="0" />
      <g
         id="g585"
         transform="translate(-880,1143.2497)">
        <path
           id="path587"
           d="m 1708.163,-914.793 c -2.479,-3.754 -5.522,-4.592 -9.08,-2.283 -2.221,1.441 -4.43,3.031 -6.262,4.926 -5.873,6.064 -13.343,8.848 -21.266,10.727 -9.5,2.256 -19.15,3.469 -28.909,3.82 -2.54,0.09 -4.173,-1.098 -4.24,-3.051 -0.068,-2.01 1.392,-3.199 3.972,-3.395 11.077,-0.842 22.118,-1.938 32.812,-5.229 4.716,-1.453 8.884,-3.729 12.565,-7.123 2.884,-2.656 6.046,-5.17 9.468,-7.053 6.345,-3.49 14.675,-0.137 17.443,6.605 0.935,2.281 2.681,2.674 4.945,1.592 1.735,-0.83 3.717,-1.141 5.695,-1.713 1.412,-6.174 9.292,-8.465 13.94,-7.227 4.62,1.232 8.412,3.855 11.938,6.9 3.054,2.637 6.107,5.303 8.879,8.225 4.191,4.422 9.29,7.113 15.126,8.365 8.011,1.719 16.08,3.176 24.115,4.785 1.021,0.205 2.425,0.367 2.886,1.059 0.654,0.984 1.162,2.742 0.696,3.613 -0.534,0.996 -2.348,2.123 -3.357,1.924 -10.342,-2.025 -20.667,-4.166 -30.924,-6.578 -5.675,-1.332 -9.75,-5.375 -13.912,-9.223 -3.962,-3.664 -8.046,-7.219 -12.322,-10.5 -2.397,-1.836 -5.264,-3.209 -8.503,-1.707 -0.261,0.121 -0.478,0.342 -1.104,0.805 2.358,0.635 4.362,1.229 6.391,1.705 2.662,0.623 3.977,2.102 3.529,4.119 -0.435,1.961 -2.092,2.748 -4.657,2.385 -4.708,-0.664 -9.431,-1.248 -14.564,-1.918 0.309,1.658 0.495,2.742 0.711,3.82 0.879,4.389 0.016,8.635 -1.113,12.834 -1.882,6.988 -1.99,8.699 6.383,12.201 6.955,2.908 14.188,1.969 20.929,-0.744 5.453,-2.195 10.629,-1.969 16.018,-0.514 12.537,3.385 24.208,8.902 35.789,14.629 2.075,1.025 2.678,2.811 1.809,4.521 -0.921,1.809 -2.687,2.25 -4.901,1.289 -9.473,-4.103 -18.941,-8.216 -28.438,-12.257 -1.665,-0.709 -3.476,-1.078 -5.199,-1.66 -4.29,-1.445 -8.371,-1.646 -12.81,0.131 -7.794,3.117 -15.957,3.881 -24.107,1.248 -2.711,-0.875 -5.229,-2.338 -7.984,-3.6 -0.556,0.82 -1.26,1.795 -1.896,2.814 -2.355,3.758 -5.812,5.691 -10.155,6.127 -5.564,0.559 -11.089,0.477 -16.497,-1.18 -4.595,-1.406 -8.298,-3.914 -10.903,-8.104 -0.616,-0.992 -2.298,-1.771 -3.541,-1.848 -6.126,-0.375 -11.862,1.568 -17.49,3.65 -5.118,1.893 -10.089,4.186 -15.17,6.189 -1.062,0.42 -2.498,0.775 -3.435,0.381 -0.904,-0.383 -2.021,-1.855 -1.903,-2.695 0.164,-1.207 1.11,-2.875 2.152,-3.305 7.497,-3.096 15.045,-6.084 22.687,-8.785 4.664,-1.648 9.563,-2.455 14.578,-1.953 2.942,0.295 5.729,1.254 7.118,3.908 2.683,5.127 7.33,6.682 12.431,7.197 3.363,0.34 6.832,0.09 10.211,-0.279 3.747,-0.41 7.319,-5.742 6.631,-9.514 -0.519,-2.836 -1.476,-5.637 -1.6,-8.48 -0.094,-2.172 0.773,-4.396 1.286,-6.58 0.206,-0.877 0.742,-1.684 0.901,-2.564 0.766,-4.246 -0.75,-5.826 -4.919,-5.035 -2.833,0.535 -5.624,1.275 -8.432,1.939 -2.168,0.514 -3.772,-0.252 -4.369,-2.123 -0.573,-1.785 0.367,-3.457 2.534,-4.146 2.428,-0.77 4.909,-1.378 7.394,-2.067 z"
           inkscape:connector-curvature="0"
           style="clip-rule:evenodd;fill:#bcbec0;fill-rule:evenodd" />
        <path
           id="path589"
           d="m 1723.567,-932.227 c 0.632,-1.264 0.953,-2.205 1.511,-2.973 3.885,-5.348 7.818,-10.66 11.737,-15.982 0.18,-0.244 0.383,-0.473 0.585,-0.701 1.476,-1.643 3.103,-1.938 4.608,-0.84 1.52,1.105 1.796,3.084 0.529,4.838 -3.247,4.498 -6.555,8.951 -9.841,13.418 -0.993,1.346 -1.806,2.916 -3.063,3.938 -0.894,0.727 -2.513,1.158 -3.595,0.883 -0.961,-0.247 -1.629,-1.647 -2.471,-2.581 z"
           inkscape:connector-curvature="0"
           style="clip-rule:evenodd;fill:#b2e3f8;fill-rule:evenodd" />
        <path
           id="path591"
           d="m 1717.427,-852.206 c -0.106,-2.891 -0.238,-5.785 -0.305,-8.68 -0.061,-2.514 1.226,-4.093 3.256,-4.114 1.989,-0.02 3.271,1.317 3.385,3.804 0.263,5.859 0.481,11.723 0.63,17.586 0.061,2.432 -1.22,3.818 -3.248,3.852 -1.968,0.031 -3.273,-1.375 -3.392,-3.77 -0.145,-2.891 -0.22,-5.784 -0.326,-8.678 z"
           inkscape:connector-curvature="0"
           style="clip-rule:evenodd;fill:#b2e3f8;fill-rule:evenodd" />
        <path
           id="path593"
           d="m 1696.941,-950.199 c 1.155,0.771 2.252,1.211 2.929,2.006 3.793,4.461 7.498,8.996 11.203,13.531 1.731,2.119 1.704,4.076 0.019,5.387 -1.616,1.258 -3.387,0.854 -5.096,-1.215 -3.734,-4.508 -7.538,-8.967 -11.099,-13.609 -0.727,-0.945 -0.865,-2.695 -0.595,-3.926 0.18,-0.809 1.577,-1.35 2.639,-2.174 z"
           inkscape:connector-curvature="0"
           style="clip-rule:evenodd;fill:#b2e3f8;fill-rule:evenodd" />
        <path
           id="path595"
           d="m 1712.199,-867.012 c 0.987,0.693 2.271,1.131 2.638,1.971 0.424,0.964 0.491,2.604 -0.073,3.394 -3.604,5.07 -7.37,10.027 -11.209,14.924 -1.097,1.402 -2.757,1.639 -4.277,0.496 -1.545,-1.162 -2.039,-2.787 -0.861,-4.391 3.684,-5.016 7.463,-9.965 11.284,-14.876 0.498,-0.639 1.468,-0.912 2.498,-1.518 z"
           inkscape:connector-curvature="0"
           style="clip-rule:evenodd;fill:#b2e3f8;fill-rule:evenodd" />
        <path
           id="path597"
           d="m 1744.164,-851.669 c -0.721,0.883 -1.292,2.184 -2.232,2.559 -0.944,0.381 -2.668,0.275 -3.347,-0.365 -4.304,-4.064 -8.467,-8.289 -12.558,-12.57 -1.288,-1.346 -1.024,-3.007 0.323,-4.272 1.333,-1.258 2.985,-1.398 4.298,-0.125 4.194,4.075 8.29,8.253 12.37,12.438 0.493,0.505 0.665,1.321 1.146,2.335 z"
           inkscape:connector-curvature="0"
           style="clip-rule:evenodd;fill:#b2e3f8;fill-rule:evenodd" />
        <path
           id="path599"
           d="m 1720.599,-942.619 c 0.093,2.584 0.216,5.166 0.271,7.75 0.051,2.43 -1.085,3.777 -3.16,3.863 -2.156,0.09 -3.284,-1.014 -3.405,-3.602 -0.246,-5.316 -0.438,-10.639 -0.58,-15.959 -0.066,-2.525 1.067,-3.846 3.121,-3.916 2.12,-0.072 3.334,1.266 3.457,3.885 0.121,2.657 0.196,5.319 0.296,7.979 z"
           inkscape:connector-curvature="0"
           style="clip-rule:evenodd;fill:#b2e3f8;fill-rule:evenodd" />
      </g>
    </g>
    <g
       id="btn_motivation_joint_1"
       inkscape:label="#btn_motivation_joint_1">
      <text
         id="text505"
         font-size="62"
         style="font-size:62px;font-family:GothamRounded-Medium;fill:#a7a9ac"
         x="190.7334"
         y="-63.114609">Bem jogado!</text>
      <path
         id="path5171"
         d="m 668.70379,-123.51132 c 22.66616,-0.56226 41.49615,17.36309 42.05624,40.02383 0.56119,22.66834 -17.35876,41.49398 -40.02927,42.05625 -22.664,0.55901 -41.48964,-17.362 -42.04865,-40.02819 -0.56444,-22.66399 17.35552,-41.48962 40.02168,-42.05189 z"
         inkscape:connector-curvature="0"
         style="fill:#fafdfe;stroke:#d4e2f4;stroke-width:5.11835384;stroke-miterlimit:4;stroke-dasharray:none;stroke-opacity:1" />
    </g>
    <g
       id="btn_motivation_joint_2">
      <text
         id="text509"
         font-size="62"
         style="font-size:62px;font-family:GothamRounded-Medium;fill:#a7a9ac"
         x="142.375"
         y="30.254608">Essa foi boa!</text>
      <path
         style="fill:#fafdfe;stroke:#d4e2f4;stroke-width:5.11835384;stroke-miterlimit:4;stroke-dasharray:none;stroke-opacity:1"
         inkscape:connector-curvature="0"
         d="m 619.34379,-30.355318 c 22.66616,-0.56226 41.49615,17.36309 42.05624,40.0238279 0.56119,22.6683401 -17.35876,41.4939801 -40.02927,42.0562501 -22.664,0.55901 -41.48964,-17.362 -42.04865,-40.02819 -0.56444,-22.663988 17.35552,-41.489618 40.02168,-42.051888 z"
         id="path7736" />
    </g>
    <g
       id="btn_motivation_joint_3">
      <text
         id="text513"
         font-size="62"
         style="font-size:62px;font-family:GothamRounded-Medium;fill:#a7a9ac"
         x="-295.56348"
         y="130.77609">Acho que está a melhorar</text>
      <path
         id="path7738"
         d="m 586.94379,70.166685 c 22.66616,-0.56226 41.49615,17.363095 42.05624,40.023825 0.56119,22.66834 -17.35876,41.49398 -40.02927,42.05625 -22.664,0.55901 -41.48964,-17.362 -42.04865,-40.02819 -0.56444,-22.66398 17.35552,-41.489615 40.02168,-42.051885 z"
         inkscape:connector-curvature="0"
         style="fill:#fafdfe;stroke:#d4e2f4;stroke-width:5.11835384;stroke-miterlimit:4;stroke-dasharray:none;stroke-opacity:1" />
    </g>
    <g
       id="btn_motivation_joint_4">
      <text
         id="text517"
         font-size="62"
         style="font-size:62px;font-family:GothamRounded-Medium;fill:#a7a9ac"
         x="259.93555"
         y="235.40298">Frase 4</text>
      <path
         style="fill:#fafdfe;stroke:#d4e2f4;stroke-width:5.11835384;stroke-miterlimit:4;stroke-dasharray:none;stroke-opacity:1"
         inkscape:connector-curvature="0"
         d="m 572.48379,174.79268 c 22.66616,-0.56226 41.49615,17.3631 42.05624,40.02383 0.56119,22.66834 -17.35876,41.49398 -40.02927,42.05625 -22.664,0.55901 -41.48964,-17.362 -42.04865,-40.02819 -0.56444,-22.66398 17.35552,-41.48962 40.02168,-42.05189 z"
         id="path7740" />
    </g>
    <g
       id="btn_motivation_joint_5">
      <text
         id="text521"
         font-size="62"
         style="font-size:62px;font-family:GothamRounded-Medium;fill:#a7a9ac"
         x="267.52832"
         y="339.84149">Frase 5</text>
      <path
         id="path7742"
         d="m 576.41379,280.33268 c 22.66616,-0.56226 41.49615,17.3631 42.05624,40.02383 0.56119,22.66834 -17.35876,41.49398 -40.02927,42.05625 -22.664,0.55901 -41.48964,-17.362 -42.04865,-40.02819 -0.56444,-22.66398 17.35552,-41.48962 40.02168,-42.05189 z"
         inkscape:connector-curvature="0"
         style="fill:#fafdfe;stroke:#d4e2f4;stroke-width:5.11835384;stroke-miterlimit:4;stroke-dasharray:none;stroke-opacity:1" />
    </g>
    <g
       id="btn_motivation_joint_6">
      <text
         id="text525"
         font-size="62"
         style="font-size:62px;font-family:GothamRounded-Medium;fill:#a7a9ac"
         x="287.67871"
         y="444.20087">Frase 6</text>
      <path
         style="fill:#fafdfe;stroke:#d4e2f4;stroke-width:5.11835384;stroke-miterlimit:4;stroke-dasharray:none;stroke-opacity:1"
         inkscape:connector-curvature="0"
         d="m 598.61379,383.59168 c 22.66616,-0.56226 41.49615,17.3631 42.05624,40.02383 0.56119,22.66834 -17.35876,41.49398 -40.02927,42.05625 -22.664,0.55901 -41.48964,-17.362 -42.04865,-40.02819 -0.56444,-22.66398 17.35552,-41.48962 40.02168,-42.05189 z"
         id="path7744" />
    </g>
    <g
       id="btn_motivation_joint_7">
      <g
         id="g7774">
        <text
           y="543.20972"
           x="328.48633"
           style="font-size:62px;font-family:GothamRounded-Medium;fill:#a7a9ac"
           font-size="62"
           id="text529">Frase 7</text>
      </g>
      <path
         id="path7746"
         d="m 638.40379,481.42368 c 22.66616,-0.56226 41.49615,17.3631 42.05624,40.02383 0.56119,22.66834 -17.35876,41.49398 -40.02927,42.05625 -22.664,0.55901 -41.48964,-17.362 -42.04865,-40.02819 -0.56444,-22.66398 17.35552,-41.48962 40.02168,-42.05189 z"
         inkscape:connector-curvature="0"
         style="fill:#fafdfe;stroke:#d4e2f4;stroke-width:5.11835384;stroke-miterlimit:4;stroke-dasharray:none;stroke-opacity:1" />
    </g>
    <g
       id="btn_motivation_joint_8">
      <text
         id="text533"
         font-size="62"
         style="font-size:62px;font-family:GothamRounded-Medium;fill:#a7a9ac"
         x="383.49023"
         y="636.47241">Frase 8</text>
      <path
         style="fill:#fafdfe;stroke:#d4e2f4;stroke-width:5.11835384;stroke-miterlimit:4;stroke-dasharray:none;stroke-opacity:1"
         inkscape:connector-curvature="0"
         d="m 694.49379,570.85868 c 22.66616,-0.56226 41.49615,17.3631 42.05624,40.02383 0.56119,22.66834 -17.35876,41.49398 -40.02927,42.05625 -22.664,0.55901 -41.48964,-17.362 -42.04865,-40.02819 -0.56444,-22.66398 17.35552,-41.48962 40.02168,-42.05189 z"
         id="path7748" />
    </g>
  </g>
</svg>
