<?xml version="1.0" encoding="UTF-8" standalone="no"?>
<!-- Created with Inkscape (http://www.inkscape.org/) -->

<svg
   xmlns:dc="http://purl.org/dc/elements/1.1/"
   xmlns:cc="http://creativecommons.org/ns#"
   xmlns:rdf="http://www.w3.org/1999/02/22-rdf-syntax-ns#"
   xmlns:svg="http://www.w3.org/2000/svg"
   xmlns="http://www.w3.org/2000/svg"
   xmlns:sodipodi="http://sodipodi.sourceforge.net/DTD/sodipodi-0.dtd"
   xmlns:inkscape="http://www.inkscape.org/namespaces/inkscape"
   width="541.86664mm"
   height="304.80011mm"
   viewBox="0 0 1919.9999 1080.0004"
   id="svg3631"
   version="1.1"
   inkscape:version="0.91 r13725"
   sodipodi:docname="btn_confused.svg">
  <defs
     id="defs3633" />
  <sodipodi:namedview
     id="base"
     pagecolor="#ffffff"
     bordercolor="#666666"
     borderopacity="1.0"
     inkscape:pageopacity="0.0"
     inkscape:pageshadow="2"
     inkscape:zoom="0.70710678"
     inkscape:cx="911.62789"
     inkscape:cy="776.96131"
     inkscape:document-units="px"
     inkscape:current-layer="layer1"
     showgrid="false"
     fit-margin-top="0"
     fit-margin-left="0"
     fit-margin-right="0"
     fit-margin-bottom="0"
     inkscape:window-width="1920"
     inkscape:window-height="1009"
     inkscape:window-x="0"
     inkscape:window-y="34"
     inkscape:window-maximized="1" />
  <metadata
     id="metadata3636">
    <rdf:RDF>
      <cc:Work
         rdf:about="">
        <dc:format>image/svg+xml</dc:format>
        <dc:type
           rdf:resource="http://purl.org/dc/dcmitype/StillImage" />
        <dc:title />
      </cc:Work>
    </rdf:RDF>
  </metadata>
  <g
     inkscape:label="Layer 1"
     inkscape:groupmode="layer"
     id="layer1"
     transform="translate(622.39242,144.7808)">
    <g
       id="btn_joking_joint_8"
       onClick="speak(this)"
       class="btn_game_doubts_joint">
      <text
         id="text41"
         font-size="62"
         style="font-size:62px;font-family:GothamRounded-Medium;fill:#a7a9ac"
         x="748.2121"
         y="194.19966">EMPTY</text>
      <path
         style="fill:#fafdfe;stroke:#d4e2f4;stroke-width:5.11835384;stroke-miterlimit:4;stroke-dasharray:none;stroke-opacity:1"
         inkscape:connector-curvature="0"
         d="m 683.65137,133.58964 c 22.66616,-0.56226 41.49615,17.36309 42.05624,40.02383 0.56119,22.66834 -17.35876,41.49398 -40.02927,42.05625 -22.664,0.55901 -41.48964,-17.362 -42.04865,-40.02819 -0.56444,-22.66399 17.35552,-41.48962 40.02168,-42.05189 z"
         id="path3877" />
    </g>
    <g
       id="btn_joking_joint_1"
       onClick="speak(this)"
       class="btn_game_doubts_joint">
      <path
         id="path5171"
         d="m -11.406627,135.69764 c 22.66616,-0.56226 41.496149,17.36309 42.056239,40.02383 0.56119,22.66834 -17.358759,41.49398 -40.0292689,42.05625 -22.6640001,0.55901 -41.4896391,-17.362 -42.0486491,-40.02819 -0.56444,-22.66399 17.355519,-41.48962 40.021679,-42.05189 z"
         inkscape:connector-curvature="0"
         style="fill:#fafdfe;stroke:#d4e2f4;stroke-width:5.11835384;stroke-miterlimit:4;stroke-dasharray:none;stroke-opacity:1" />
      <text
         sodipodi:linespacing="100%"
         id="text4317"
         y="192.08841"
         x="-220.06943"
         style="font-style:normal;font-weight:normal;font-size:90px;line-height:100%;font-family:sans-serif;text-align:center;letter-spacing:0px;word-spacing:0px;text-anchor:middle;fill:#a7a9ac;fill-opacity:1;stroke:none;stroke-width:1px;stroke-linecap:butt;stroke-linejoin:miter;stroke-opacity:1"
         xml:space="preserve"><tspan
           style="font-style:normal;font-variant:normal;font-weight:normal;font-stretch:normal;font-size:62px;font-family:GothamRounded-Medium;-inkscape-font-specification:GothamRounded-Medium;text-align:center;text-anchor:middle;fill:#a7a9ac;fill-opacity:1"
           id="tspan4325"
           y="192.08841"
           x="-220.06943"
           sodipodi:role="line">Preguiças</tspan></text>
    </g>
    <g
       id="btn_joking_joint_2"
       onClick="speak(this)"
       class="btn_game_doubts_joint">
      <path
         style="fill:#fafdfe;stroke:#d4e2f4;stroke-width:5.11835384;stroke-miterlimit:4;stroke-dasharray:none;stroke-opacity:1"
         inkscape:connector-curvature="0"
         d="m 80.091374,226.80764 c 22.666156,-0.56226 41.496146,17.36309 42.056236,40.02383 0.56119,22.66834 -17.35876,41.49398 -40.029266,42.05625 -22.664001,0.55901 -41.48964,-17.362 -42.04865,-40.02819 -0.56444,-22.66399 17.355519,-41.48962 40.02168,-42.05189 z"
         id="path3865" />
      <text
         xml:space="preserve"
         style="font-style:normal;font-weight:normal;font-size:90px;line-height:100%;font-family:sans-serif;text-align:center;letter-spacing:0px;word-spacing:0px;text-anchor:middle;fill:#a7a9ac;fill-opacity:1;stroke:none;stroke-width:1px;stroke-linecap:butt;stroke-linejoin:miter;stroke-opacity:1"
         x="-259.66739"
         y="287.50977"
         id="text4341"
         sodipodi:linespacing="100%"><tspan
           sodipodi:role="line"
           x="-259.66739"
           y="287.50977"
           id="tspan4345"
           style="font-style:normal;font-variant:normal;font-weight:normal;font-stretch:normal;font-size:62px;font-family:GothamRounded-Medium;-inkscape-font-specification:GothamRounded-Medium;text-align:center;text-anchor:middle;fill:#a7a9ac;fill-opacity:1">Deixe desculpas</tspan></text>
    </g>
    <g
       id="btn_joking_joint_3"
       onClick="speak(this)"
       class="btn_game_doubts_joint">
      <g
         id="btn_game_doubts_3">
        <path
           style="fill:#fafdfe;stroke:#d4e2f4;stroke-width:5.11835384;stroke-miterlimit:4;stroke-dasharray:none;stroke-opacity:1"
           inkscape:connector-curvature="0"
           d="m 179.36737,303.27564 c 22.66616,-0.56226 41.49615,17.36309 42.05624,40.02383 0.56119,22.66834 -17.35876,41.49398 -40.02927,42.05625 -22.664,0.55901 -41.48964,-17.362 -42.04865,-40.02819 -0.56444,-22.66399 17.35552,-41.48962 40.02168,-42.05189 z"
           id="path3867" />
      </g>
      <text
         sodipodi:linespacing="100%"
         id="text4353"
         y="366.60522"
         x="-72.2948"
         style="font-style:normal;font-weight:normal;font-size:90px;line-height:100%;font-family:sans-serif;text-align:center;letter-spacing:0px;word-spacing:0px;text-anchor:middle;fill:#a7a9ac;fill-opacity:1;stroke:none;stroke-width:1px;stroke-linecap:butt;stroke-linejoin:miter;stroke-opacity:1"
         xml:space="preserve"><tspan
           style="font-style:normal;font-variant:normal;font-weight:normal;font-stretch:normal;font-size:62px;font-family:GothamRounded-Medium;-inkscape-font-specification:GothamRounded-Medium;text-align:center;text-anchor:middle;fill:#a7a9ac;fill-opacity:1"
           id="tspan4355"
           y="366.60522"
           x="-72.2948"
           sodipodi:role="line">Domésticas</tspan></text>
    </g>
    <g
       id="btn_joking_joint_4"
       onClick="speak(this)"
       class="btn_game_doubts_joint">
      <path
         style="fill:#fafdfe;stroke:#d4e2f4;stroke-width:5.11835384;stroke-miterlimit:4;stroke-dasharray:none;stroke-opacity:1"
         inkscape:connector-curvature="0"
         d="m 283.39037,379.19364 c 22.66616,-0.56226 41.49615,17.36309 42.05624,40.02383 0.56119,22.66834 -17.35876,41.49398 -40.02927,42.05625 -22.664,0.55901 -41.48964,-17.362 -42.04865,-40.02819 -0.56444,-22.66399 17.35552,-41.48962 40.02168,-42.05189 z"
         id="path3869" />
      <text
         xml:space="preserve"
         style="font-style:normal;font-weight:normal;font-size:90px;line-height:100%;font-family:sans-serif;text-align:center;letter-spacing:0px;word-spacing:0px;text-anchor:middle;fill:#a7a9ac;fill-opacity:1;stroke:none;stroke-width:1px;stroke-linecap:butt;stroke-linejoin:miter;stroke-opacity:1"
         x="-92.2948"
         y="446.60522"
         id="text4359"
         sodipodi:linespacing="100%"><tspan
           id="tspan4367"
           sodipodi:role="line"
           x="-92.2948"
           y="446.60522"
           style="font-style:normal;font-variant:normal;font-weight:normal;font-stretch:normal;font-size:62px;font-family:GothamRounded-Medium;-inkscape-font-specification:GothamRounded-Medium;text-align:center;text-anchor:middle;fill:#a7a9ac;fill-opacity:1">Eu não teria energia</tspan></text>
    </g>
    <g
       id="btn_joking_joint_5"
       onClick="speak(this)"
       class="btn_game_doubts_joint">
      <path
         id="path3871"
         d="m 389.00237,379.19364 c 22.66616,-0.56226 41.49615,17.36309 42.05624,40.02383 0.56119,22.66834 -17.35876,41.49398 -40.02927,42.05625 -22.664,0.55901 -41.48964,-17.362 -42.04865,-40.02819 -0.56444,-22.66399 17.35552,-41.48962 40.02168,-42.05189 z"
         inkscape:connector-curvature="0"
         style="fill:#fafdfe;stroke:#d4e2f4;stroke-width:5.11835384;stroke-miterlimit:4;stroke-dasharray:none;stroke-opacity:1" />
      <text
         sodipodi:linespacing="100%"
         id="text4369"
         y="446.01941"
         x="825.68921"
         style="font-style:normal;font-weight:normal;font-size:90px;line-height:100%;font-family:sans-serif;text-align:center;letter-spacing:0px;word-spacing:0px;text-anchor:middle;fill:#a7a9ac;fill-opacity:1;stroke:none;stroke-width:1px;stroke-linecap:butt;stroke-linejoin:miter;stroke-opacity:1"
         xml:space="preserve"><tspan
           style="font-style:normal;font-variant:normal;font-weight:normal;font-stretch:normal;font-size:62px;font-family:GothamRounded-Medium;-inkscape-font-specification:GothamRounded-Medium;text-align:center;text-anchor:middle;fill:#a7a9ac;fill-opacity:1"
           y="446.01941"
           x="825.68921"
           sodipodi:role="line"
           id="tspan4373">Exercício desde 20 anos</tspan></text>
    </g>
    <g
       id="btn_joking_joint_6"
       onClick="speak(this)"
       class="btn_game_doubts_joint">
      <path
         style="fill:#fafdfe;stroke:#d4e2f4;stroke-width:5.11835384;stroke-miterlimit:4;stroke-dasharray:none;stroke-opacity:1"
         inkscape:connector-curvature="0"
         d="m 493.00137,302.68464 c 22.66616,-0.56226 41.49615,17.36309 42.05624,40.02383 0.56119,22.66834 -17.35876,41.49398 -40.02927,42.05625 -22.664,0.55901 -41.48964,-17.362 -42.04865,-40.02819 -0.56444,-22.66399 17.35552,-41.48962 40.02168,-42.05189 z"
         id="path3873" />
      <text
         xml:space="preserve"
         style="font-style:normal;font-weight:normal;font-size:90px;line-height:100%;font-family:sans-serif;text-align:center;letter-spacing:0px;word-spacing:0px;text-anchor:middle;fill:#a7a9ac;fill-opacity:1;stroke:none;stroke-width:1px;stroke-linecap:butt;stroke-linejoin:miter;stroke-opacity:1"
         x="831.06891"
         y="370.27933"
         id="text4379"
         sodipodi:linespacing="100%"><tspan
           sodipodi:role="line"
           x="831.06891"
           y="370.27933"
           id="tspan4381"
           style="font-style:normal;font-variant:normal;font-weight:normal;font-stretch:normal;font-size:62px;font-family:GothamRounded-Medium;-inkscape-font-specification:GothamRounded-Medium;text-align:center;text-anchor:middle;fill:#a7a9ac;fill-opacity:1">Força nas canetas</tspan></text>
    </g>
    <g
       id="btn_joking_joint_7"
       onClick="speak(this)"
       class="btn_game_doubts_joint">
      <path
         id="path3875"
         d="m 592.22137,226.47964 c 22.66616,-0.56226 41.49615,17.36309 42.05624,40.02383 0.56119,22.66834 -17.35876,41.49398 -40.02927,42.05625 -22.664,0.55901 -41.48964,-17.362 -42.04865,-40.02819 -0.56444,-22.66399 17.35552,-41.48962 40.02168,-42.05189 z"
         inkscape:connector-curvature="0"
         style="fill:#fafdfe;stroke:#d4e2f4;stroke-width:5.11835384;stroke-miterlimit:4;stroke-dasharray:none;stroke-opacity:1" />
      <text
         sodipodi:linespacing="100%"
         id="text4385"
         y="292.25494"
         x="758.75012"
         style="font-style:normal;font-weight:normal;font-size:90px;line-height:100%;font-family:sans-serif;text-align:center;letter-spacing:0px;word-spacing:0px;text-anchor:middle;fill:#a7a9ac;fill-opacity:1;stroke:none;stroke-width:1px;stroke-linecap:butt;stroke-linejoin:miter;stroke-opacity:1"
         xml:space="preserve"><tspan
           style="font-style:normal;font-variant:normal;font-weight:normal;font-stretch:normal;font-size:62px;font-family:GothamRounded-Medium;-inkscape-font-specification:GothamRounded-Medium;text-align:center;text-anchor:middle;fill:#a7a9ac;fill-opacity:1"
           id="tspan4387"
           y="292.25494"
           x="758.75012"
           sodipodi:role="line">EMPTY</tspan></text>
    </g>
    <g
       transform="matrix(0.41452184,0,0,0.41452184,213.5713,-108.39528)"
       id="btn_joking">
      <path
         style="fill:#ffffff"
         inkscape:connector-curvature="0"
         d="m 42.915,297.635 c 0,-140.677 114.046,-254.72 254.726,-254.72 140.685,0 254.724,114.042 254.724,254.72 0,140.684 -114.039,254.729 -254.724,254.729 -140.68,0 -254.726,-114.046 -254.726,-254.729 z"
         id="path5-3" />
      <path
         style="fill:#d1d3d4"
         inkscape:connector-curvature="0"
         d="m 297.641,576.488 c -153.759,0 -278.85,-125.092 -278.85,-278.854 0,-153.754 125.09,-278.844 278.85,-278.844 153.76,0 278.848,125.089 278.848,278.844 C 576.488,451.396 451.4,576.488 297.641,576.488 Z m 0,-533.573 c -140.456,0 -254.726,114.267 -254.726,254.72 0,140.46 114.27,254.729 254.726,254.729 140.454,0 254.724,-114.27 254.724,-254.729 C 552.364,157.182 438.095,42.915 297.641,42.915 Z"
         id="path7-6" />
      <path
         style="fill:#dcdbdb"
         inkscape:connector-curvature="0"
         d="m 460.005,287.736 c -0.02,-1.296 0.254,-31.531 -1.796,-37.138 0,0 -0.754,-17.047 -4.57,-32.059 -3.826,-15.016 -22.174,-43.263 -22.174,-43.263 0,0 -11.162,-16.925 -21.791,-16.925 -10.625,0 -14.277,8.896 -19.757,16.793 -5.479,7.901 -11.101,16.416 -25.1,22.909 -13.867,6.427 -16.029,9.48 -67.182,9.537 -51.146,-0.057 -53.309,-3.11 -67.171,-9.537 -13.999,-6.493 -19.625,-15.007 -25.104,-22.909 -5.479,-7.897 -9.126,-16.793 -19.751,-16.793 -10.63,0 -21.792,16.925 -21.792,16.925 0,0 -18.357,28.247 -22.174,43.263 -3.816,15.012 -4.58,32.059 -4.58,32.059 -2.036,5.607 -1.767,35.842 -1.781,37.138 -0.014,1.292 -0.452,20.445 3.558,45.069 4.014,24.624 21.514,48.399 21.514,48.399 l 137.249,35.046 0,0.023 0.033,-0.014 0.033,0.014 0,-0.023 137.26,-35.046 c 0,0 17.499,-23.775 21.509,-48.399 4.004,-24.623 3.571,-43.777 3.567,-45.069 z"
         id="path9-7" />
      <path
         style="fill:#aeadae"
         inkscape:connector-curvature="0"
         d="m 161.749,216.372 c 6.012,-0.383 5.06,-1.616 20.996,5.348 21.806,9.527 61.46,40.846 61.46,40.846 0,0 7.384,8.905 10.31,23.281 2.921,14.386 0.768,29.153 0,42.002 -0.772,12.845 -2.667,44.658 -2.667,44.658 0,0 0.377,36.276 48.479,36.276 48.108,0 49.635,-27.875 49.635,-27.875 0,0 1.221,-13.438 0,-27.677 -1.216,-14.239 -1.903,-24.242 -4.58,-47.146 -2.676,-22.905 4.707,-28.507 6.87,-33.596 2.017,-3.204 4.33,-8.396 15.652,-17.561 11.327,-9.16 51.66,-33.335 56.876,-35.885 5.221,-2.54 9.292,-2.29 12.977,-0.891 3.693,1.399 6.747,5.857 9.937,13.876 3.176,8.015 5.339,59.547 5.339,59.547 0,0 0.961,25.771 -2.285,45.051 -3.251,19.275 -6.663,30.617 -11.455,38.942 -7.293,9.589 -41.609,66.804 -138.965,66.804 -97.35,0 -133.234,-52.301 -138.578,-59.175 -5.348,-6.865 -10.305,-22.042 -13.358,-39.174 -3.058,-17.137 -3.439,-70.004 -3.439,-70.004 0,0 1.87,-33.439 3.816,-38.948 1.949,-5.488 5.61,-19.082 12.98,-18.699 z"
         id="path11-5" />
      <path
         style="fill:#dcdbdb"
         inkscape:connector-curvature="0"
         d="m 233.636,275.905 c -7.091,2.723 -11.351,5.579 -32.209,8.071 -20.869,2.483 -32.474,1.663 -35.15,1.068 -2.671,-0.598 -4.575,-4.315 2.087,-4.593 6.676,-0.288 20.779,-0.673 32.083,-2.512 11.303,-1.833 26.315,-3.882 29.5,-4.919 3.18,-1.026 7.312,1.392 3.689,2.885 z"
         id="path13-3" />
      <path
         style="fill:#dcdbdb"
         inkscape:connector-curvature="0"
         d="m 429.915,269.291 c -7.591,0.371 -12.628,-0.534 -32.728,5.606 -20.096,6.134 -30.387,11.572 -32.597,13.193 -2.205,1.625 -2.45,5.795 3.774,3.364 6.215,-2.432 19.275,-7.76 30.362,-10.649 11.082,-2.879 25.646,-7.052 28.973,-7.388 3.333,-0.339 6.131,-4.222 2.216,-4.126 z"
         id="path15-56" />
      <path
         style="fill:#dcdbdb"
         inkscape:connector-curvature="0"
         d="m 236.26,328.192 c -6.337,-14.555 -21.151,-24.76 -38.41,-24.76 -20.247,0 -37.124,14.05 -40.908,32.676 7.968,-3.642 24.336,-9.913 42.693,-9.913 15.832,0 28.879,1.121 36.625,1.997 z"
         id="path17-2" />
      <path
         style="fill:#ffffff"
         inkscape:connector-curvature="0"
         d="m 191.715,374.606 c 14.045,3.38 24.322,3.074 31.295,1.783 10.045,-7.412 16.534,-19.153 16.534,-32.365 0,-5.612 -1.168,-10.965 -3.284,-15.832 -7.746,-0.876 -20.793,-1.997 -36.625,-1.997 -18.357,0 -34.726,6.271 -42.693,9.913 -0.519,2.563 -0.792,5.207 -0.792,7.916 0,3.124 0.377,6.172 1.065,9.094 5.339,7.006 15.875,17.01 34.5,21.488 z"
         id="path19-9" />
      <path
         style="fill:#dcdbdb"
         inkscape:connector-curvature="0"
         d="m 197.85,384.616 c 9.452,0 18.168,-3.067 25.161,-8.227 -6.974,1.291 -17.25,1.597 -31.295,-1.783 -18.625,-4.479 -29.161,-14.482 -34.5,-21.488 4.24,18.036 20.816,31.498 40.634,31.498 z"
         id="path21-1" />
      <path
         style="fill:#414141"
         inkscape:connector-curvature="0"
         d="m 185.609,346.813 c 0,-9.169 8.844,-16.604 19.751,-16.604 10.913,0 19.761,7.436 19.761,16.604 0,9.168 -8.849,16.609 -19.761,16.609 -10.907,10e-4 -19.751,-7.44 -19.751,-16.609 z"
         id="path23-27" />
      <path
         style="fill:#fdfeff"
         inkscape:connector-curvature="0"
         d="m 203.075,343.374 c 0,-2.313 1.88,-4.198 4.198,-4.198 2.318,0 4.198,1.885 4.198,4.198 0,2.323 -1.88,4.203 -4.198,4.203 -2.318,0 -4.198,-1.88 -4.198,-4.203 z"
         id="path25-0" />
      <path
         style="fill:#dcdbdb"
         inkscape:connector-curvature="0"
         d="m 361.5,325.78 c 6.333,-14.555 21.146,-24.761 38.41,-24.761 20.242,0 37.12,14.051 40.903,32.677 -7.968,-3.643 -24.336,-9.914 -42.688,-9.914 -15.836,0 -28.883,1.122 -36.625,1.998 z"
         id="path27-9" />
      <path
         style="fill:#ffffff"
         inkscape:connector-curvature="0"
         d="m 406.041,372.193 c -14.046,3.381 -24.322,3.074 -31.296,1.783 -10.041,-7.411 -16.534,-19.153 -16.534,-32.364 0,-5.612 1.174,-10.965 3.289,-15.832 7.742,-0.876 20.789,-1.998 36.625,-1.998 18.353,0 34.721,6.271 42.688,9.914 0.519,2.563 0.796,5.206 0.796,7.916 0,3.123 -0.381,6.172 -1.069,9.093 -5.338,7.007 -15.874,17.01 -34.499,21.488 z"
         id="path29-3" />
      <path
         style="fill:#dcdbdb"
         inkscape:connector-curvature="0"
         d="m 399.91,382.204 c -9.456,0 -18.173,-3.067 -25.165,-8.228 6.974,1.291 17.25,1.598 31.296,-1.783 18.625,-4.479 29.161,-14.481 34.499,-21.488 -4.24,18.037 -20.811,31.499 -40.63,31.499 z"
         id="path31" />
      <path
         style="fill:#414141"
         inkscape:connector-curvature="0"
         d="m 412.147,344.401 c 0,-9.169 -8.845,-16.604 -19.752,-16.604 -10.913,0 -19.762,7.436 -19.762,16.604 0,9.168 8.849,16.608 19.762,16.608 10.908,10e-4 19.752,-7.439 19.752,-16.608 z"
         id="path33-6" />
      <path
         style="fill:#fdfeff"
         inkscape:connector-curvature="0"
         d="m 394.686,340.962 c 0,-2.313 -1.885,-4.198 -4.198,-4.198 -2.323,0 -4.198,1.885 -4.198,4.198 0,2.322 1.875,4.202 4.198,4.202 2.313,0 4.198,-1.88 4.198,-4.202 z"
         id="path35-0" />
      <path
         style="fill:#b2e3f8"
         inkscape:connector-curvature="0"
         d="m 326.308,429.845 c -3.91,1.616 -8.849,24.975 -3.977,42.559 4.877,17.582 17.637,36.472 52.753,22.372 35.112,-14.101 24.384,-32.5 16.633,-48.232 -7.746,-15.732 -21.797,-32.389 -26.763,-30.269"
         id="path37" />
      <path
         style="fill:#8dcae0"
         inkscape:connector-curvature="0"
         d="m 348.505,430.447 c 0,0 3.186,16.176 6.55,25.977 3.364,9.8 11.199,25.104 11.199,25.104 0,0 -4.357,-16.773 -8.434,-28.689 -4.071,-11.919 -9.315,-22.392 -9.315,-22.392 z"
         id="path39" />
      <path
         style="fill:#b2e3f8"
         inkscape:connector-curvature="0"
         d="M 278.572,427.842"
         id="path41-6" />
      <path
         style="fill:none;stroke:#b2e3f8;stroke-linecap:round;stroke-miterlimit:10"
         inkscape:connector-curvature="0"
         stroke-miterlimit="10"
         d="m 307.254,427.06 c 0,0 13.466,5.614 38.462,-2.36 24.996,-7.974 34.292,-15.987 34.292,-15.987"
         id="path43" />
      <path
         style="fill:#dcdbdb"
         inkscape:connector-curvature="0"
         d="m 406.945,301.604 c -22.721,-3.981 -44.314,10.922 -48.234,33.288 -0.692,3.944 -0.759,7.85 -0.32,11.643 0,0 7.016,-13.343 31.87,-15.027 24.859,-1.685 51.312,9.878 51.312,9.878 -0.425,-19.285 -14.617,-36.277 -34.628,-39.782 z"
         id="path45" />
      <path
         style="fill:#dcdbdb"
         inkscape:connector-curvature="0"
         d="m 392.838,382.609 c 22.674,3.977 44.225,-10.937 48.146,-33.299 0.396,-2.247 0.546,-4.474 0.565,-6.681 0,0 -29.105,6.837 -49.262,8.057 -20.157,1.221 -33.515,-2.577 -33.515,-2.577 2.62,17.034 15.94,31.325 34.066,34.5 z"
         id="path47-2" />
    </g>
  </g>
</svg>
