<?xml version="1.0" encoding="UTF-8" standalone="no"?>
<!-- Created with Inkscape (http://www.inkscape.org/) -->

<svg
   xmlns:dc="http://purl.org/dc/elements/1.1/"
   xmlns:cc="http://creativecommons.org/ns#"
   xmlns:rdf="http://www.w3.org/1999/02/22-rdf-syntax-ns#"
   xmlns:svg="http://www.w3.org/2000/svg"
   xmlns="http://www.w3.org/2000/svg"
   xmlns:sodipodi="http://sodipodi.sourceforge.net/DTD/sodipodi-0.dtd"
   xmlns:inkscape="http://www.inkscape.org/namespaces/inkscape"
   width="541.86664mm"
   height="304.79999mm"
   viewBox="0 0 1919.9999 1080"
   id="bnt_persuade_full"
   version="1.1"
   inkscape:version="0.91 r13725"
   sodipodi:docname="btn_persuade.svg">
  <defs
     id="defs5873" />
  <sodipodi:namedview
     id="base"
     pagecolor="#ffffff"
     bordercolor="#666666"
     borderopacity="1.0"
     inkscape:pageopacity="0.0"
     inkscape:pageshadow="2"
     inkscape:zoom="0.49497475"
     inkscape:cx="616.1971"
     inkscape:cy="612.49516"
     inkscape:document-units="px"
     inkscape:current-layer="layer1"
     showgrid="false"
     fit-margin-top="0"
     fit-margin-left="0"
     fit-margin-right="0"
     fit-margin-bottom="0"
     inkscape:window-width="1920"
     inkscape:window-height="1016"
     inkscape:window-x="0"
     inkscape:window-y="27"
     inkscape:window-maximized="1" />
  <g
     inkscape:label="Layer 1"
     inkscape:groupmode="layer"
     id="layer1"
     transform="translate(628.57143,-100.9336)">
    <g
       id="btn_persuade_icon">
      <path
         id="path77"
         d="m -545.43043,916.38603 c 0,-61.074 49.514,-110.586 110.588,-110.586 61.078,0 110.59,49.512 110.59,110.586 0,61.078 -49.512,110.59197 -110.59,110.59197 -61.075,0 -110.588,-49.51397 -110.588,-110.59197 z"
         stroke-miterlimit="10"
         style="fill:#ffffff;stroke:#d1d3d4;stroke-width:10;stroke-miterlimit:10"
         inkscape:connector-curvature="0" />
      <path
         style="clip-rule:evenodd;fill:#bcbec0;fill-rule:evenodd"
         inkscape:connector-curvature="0"
         d="m -397.62343,880.043 c 4.983,0 9.712,0 14.438,0 0.885,0 1.768,-0.01 2.652,0.021 1.278,0.039 1.973,0.733 1.986,1.996 0.029,3.005 0.045,6.013 -0.006,9.017 -0.021,1.364 -0.699,1.933 -2.141,1.943 -2.784,0.02 -5.569,0.01 -8.355,0.01 -0.475,0 -0.952,0 -1.479,0 0,2.928 0,5.697 0,8.631 0.511,0 0.98,0 1.451,0 7.073,0 14.146,-0.01 21.219,0 10.063,0.012 17.986,6.256 20.344,16.019 2.606,10.794 -4.879,22.31 -15.818,24.271 -1.469,0.261 -2.98,0.398 -4.472,0.4 -16.578,0.028 -33.155,0.018 -49.733,0.018 -11.999,0 -21.336,-10.025 -20.475,-21.978 0.75,-10.381 9.662,-18.638 20.295,-18.72 7.205,-0.057 14.412,-0.01 21.617,-0.012 0.48,0 0.962,0 1.588,0 0.028,-0.537 0.07,-1 0.071,-1.463 0.008,-2.83 -0.009,-5.66 0.012,-8.488 0.013,-1.801 0.683,-2.468 2.503,-2.48 3.135,-0.021 6.268,-0.01 9.495,-0.01 0,-1.775 0,-3.475 0,-5.375 -0.444,0 -0.909,0 -1.374,0 -4.951,0 -9.902,0.01 -14.853,-10e-4 -2.151,0 -2.774,-0.626 -2.776,-2.742 -0.005,-2.211 -0.01,-4.421 0,-6.633 0.008,-1.542 0.658,-2.327 1.901,-2.333 1.241,-0.01 1.876,0.738 1.902,2.333 0.031,1.798 0.008,3.599 0.008,5.57 z m 5.134,25.543 c 0,-0.03 0,-0.058 0,-0.088 -8.088,0 -16.176,0 -24.264,0 -0.088,0 -0.178,10e-4 -0.266,0 -10.182,-0.204 -16.931,7.862 -17.213,15.978 -0.309,8.855 6.971,16.984 15.814,17.037 17.104,0.095 34.208,0.035 51.313,0.035 0.616,0 1.243,0.012 1.852,-0.078 10.402,-1.537 15.392,-11.082 14.291,-18.629 -1.093,-7.492 -7.563,-14.029 -15.146,-14.207 -8.789,-0.206 -17.587,-0.048 -26.381,-0.048 z"
         id="path701" />
      <path
         style="clip-rule:evenodd;fill:#bcbec0;fill-rule:evenodd"
         inkscape:connector-curvature="0"
         d="m -410.38243,924.968 c 0,2.305 -0.038,4.418 0.015,6.527 0.031,1.231 -0.414,1.762 -1.694,1.74 -4.597,-0.072 -3.964,0.479 -3.998,-3.901 -0.012,-1.403 -0.002,-2.806 -0.002,-4.366 -2.193,0 -4.256,0 -6.316,0 -1.771,-0.01 -1.996,-0.219 -1.994,-1.979 0.006,-4.519 -0.406,-3.749 3.775,-3.813 1.451,-0.021 2.902,0 4.535,0 0,-2.242 -0.006,-4.388 0.002,-6.535 0.005,-1.662 0.063,-1.715 1.719,-1.723 0.795,-0.01 1.596,0.061 2.383,-0.016 1.268,-0.124 1.619,0.481 1.588,1.635 -0.049,1.897 -0.014,3.798 -0.008,5.697 0,0.258 0.032,0.516 0.061,0.941 2.201,0 4.348,0 6.494,0 1.553,0 1.789,0.211 1.787,1.734 -0.004,4.325 0.451,4.089 -3.918,4.063 -1.41,-0.01 -2.819,0 -4.429,0 z"
         id="path703" />
      <path
         style="clip-rule:evenodd;fill:#bcbec0;fill-rule:evenodd"
         inkscape:connector-curvature="0"
         d="m -369.69043,919.158 c -2.154,-0.049 -3.916,-1.881 -3.886,-4.037 0.028,-2.085 1.999,-3.942 4.088,-3.856 2.054,0.083 3.86,1.977 3.829,4.01 -0.033,2.137 -1.898,3.933 -4.031,3.883 z"
         id="path705" />
      <path
         style="clip-rule:evenodd;fill:#bcbec0;fill-rule:evenodd"
         inkscape:connector-curvature="0"
         d="m -377.86643,921.997 c 2.115,0.013 3.9,1.762 3.914,3.833 0.016,2.155 -1.873,3.991 -4.076,3.963 -2.167,-0.028 -3.824,-1.802 -3.785,-4.05 0.036,-2.116 1.767,-3.76 3.947,-3.746 z"
         id="path707" />
      <path
         style="clip-rule:evenodd;fill:#bcbec0;fill-rule:evenodd"
         inkscape:connector-curvature="0"
         d="m -365.13743,923.058 c 2.145,0.025 3.858,1.76 3.85,3.895 -0.01,2.162 -1.809,3.918 -3.998,3.903 -2.19,-0.016 -3.842,-1.767 -3.809,-4.04 0.031,-2.127 1.775,-3.783 3.957,-3.758 z"
         id="path709" />
      <path
         style="clip-rule:evenodd;fill:#bcbec0;fill-rule:evenodd"
         inkscape:connector-curvature="0"
         d="m -452.07243,915.826 c -1.937,2.324 -4.023,2.758 -7.183,2.83 -3.159,0.073 -4.328,0.563 -8.93,-0.421 -4.602,-0.984 -6.903,-1.778 -9.949,-3.749 -0.432,-0.277 -0.877,-0.533 -1.748,-0.57 0.182,0.637 0.364,1.271 0.547,1.907 2.842,9.913 3.678,19.815 -0.146,29.693 -0.22,0.567 -0.42,1.173 -0.775,1.649 -2.716,3.652 -2.972,7.84 -2.89,12.177 0.109,5.896 0.26,11.819 -1.283,17.59 -0.448,1.68 -1.074,3.366 -1.933,4.871 -2.845,4.989 -9.468,4.962 -12.479,0.038 -2.06,-3.368 -2.492,-7.143 -2.588,-10.946 -0.134,-5.291 0.023,-10.59 -0.164,-15.878 -0.057,-1.609 -0.51,-3.395 -1.347,-4.752 -4.547,-7.369 -6.627,-15.549 -7.804,-23.946 -1.528,-10.901 -0.598,-21.632 3.517,-31.964 2.378,-5.973 5.677,-11.389 9.853,-16.262 3.406,-3.977 9.586,-4.325 13.505,-0.888 2.04,1.788 2.858,3.948 2.103,6.55 -1.049,3.614 -0.066,6.771 1.844,9.822 5.123,8.195 12.477,12.337 22.152,12.424 3.262,0.029 5.313,1.685 6.385,4.696 0.242,0.679 0.819,1.374 1.432,1.759 3.586,2.267 4.625,4.693 3.395,8.785 -1.44,4.781 -2.035,9.654 -2.031,14.631 0.01,12.422 -0.016,33.688 -0.033,46.108 0,0.606 0.17,1.407 -0.143,1.78 -0.637,0.76 -1.535,1.757 -2.349,1.778 -0.794,0.021 -1.813,-0.916 -2.362,-1.694 -0.403,-0.57 -0.273,-1.564 -0.273,-2.371 -0.014,-15.135 0.01,-39.116 -0.038,-54.252 -0.007,-1.819 0.519,-3.231 1.751,-4.571 2.223,-2.418 2.198,-4.991 -0.036,-6.824 z"
         id="path713" />
      <path
         style="clip-rule:evenodd;fill:#bcbec0;fill-rule:evenodd"
         inkscape:connector-curvature="0"
         d="m -475.36143,840.322 c 9.399,0.137 16.132,8.659 15.622,17.096 -0.582,9.641 -8.385,16.574 -17.533,15.925 -9.173,-0.651 -16.305,-8.705 -15.525,-17.535 0.836,-9.507 8.384,-16.21 17.436,-15.486 z"
         id="path715" />
    </g>
    <g
       id="btn_persuade_joint_1">
      <text
         y="363.45609"
         x="-391.54803"
         style="font-size:62px;font-family:GothamRounded-Medium;fill:#a7a9ac"
         font-size="62"
         id="text353">É um jogo para fazer exercício físico!</text>
      <path
         id="path5171"
         d="m -460.84665,303.4476 c 22.66616,-0.56226 41.49615,17.36309 42.05624,40.02383 0.56119,22.66835 -17.35876,41.49399 -40.02927,42.05626 -22.664,0.55901 -41.48963,-17.362 -42.04864,-40.0282 -0.56444,-22.66399 17.35551,-41.48962 40.02167,-42.05189 z"
         inkscape:connector-curvature="0"
         style="fill:#fafdfe;stroke:#d4e2f4;stroke-width:5.11835384;stroke-miterlimit:4;stroke-dasharray:none;stroke-opacity:1" />
    </g>
    <g
       id="btn_persuade_joint_2">
      <text
         y="452.75201"
         x="-295.23254"
         style="font-size:62px;font-family:GothamRounded-Medium;fill:#a7a9ac"
         font-size="62"
         id="text359">Garanto-lhe que o jogo é muito divertido!</text>
      <path
         style="fill:#fafdfe;stroke:#d4e2f4;stroke-width:5.11835384;stroke-miterlimit:4;stroke-dasharray:none;stroke-opacity:1"
         inkscape:connector-curvature="0"
         d="m -364.11365,393.2276 c 22.66616,-0.56226 41.49615,17.36309 42.05624,40.02383 0.56119,22.66835 -17.35876,41.49399 -40.02927,42.05626 -22.664,0.55901 -41.48963,-17.362 -42.04864,-40.0282 -0.56444,-22.66399 17.35551,-41.48962 40.02167,-42.05189 z"
         id="path6076" />
    </g>
    <g
       id="btn_persuade_joint_3">
      <text
         y="558.98828"
         x="-208.85564"
         style="font-size:62px;font-family:GothamRounded-Medium;fill:#a7a9ac"
         font-size="62"
         id="text365">Frase 3</text>
      <path
         id="path6078"
         d="m -277.30565,498.6996 c 22.66616,-0.56226 41.49615,17.36309 42.05624,40.02383 0.56119,22.66835 -17.35876,41.49399 -40.02927,42.05626 -22.664,0.55901 -41.48963,-17.362 -42.04864,-40.0282 -0.56444,-22.66399 17.35551,-41.48962 40.02167,-42.05189 z"
         inkscape:connector-curvature="0"
         style="fill:#fafdfe;stroke:#d4e2f4;stroke-width:5.11835384;stroke-miterlimit:4;stroke-dasharray:none;stroke-opacity:1" />
    </g>
    <g
       id="btn_persuade_joint_4">
      <text
         y="673.62988"
         x="-142.00403"
         style="font-size:62px;font-family:GothamRounded-Medium;fill:#a7a9ac"
         font-size="62"
         id="text371">Frase 4</text>
      <path
         style="fill:#fafdfe;stroke:#d4e2f4;stroke-width:5.11835384;stroke-miterlimit:4;stroke-dasharray:none;stroke-opacity:1"
         inkscape:connector-curvature="0"
         d="m -209.87365,612.6736 c 22.66616,-0.56226 41.49615,17.36309 42.05624,40.02383 0.56119,22.66835 -17.35876,41.49399 -40.02927,42.05626 -22.664,0.55901 -41.48963,-17.362 -42.04864,-40.0282 -0.56444,-22.66399 17.35551,-41.48962 40.02167,-42.05189 z"
         id="path6080" />
    </g>
    <g
       id="btn_persuade_joint_5">
      <text
         y="790.96088"
         x="-86.059731"
         style="font-size:62px;font-family:GothamRounded-Medium;fill:#a7a9ac"
         font-size="62"
         id="text377">Frase 5</text>
      <path
         id="path6082"
         d="m -155.35565,730.1056 c 22.66616,-0.56226 41.49615,17.36309 42.05624,40.02383 0.56119,22.66835 -17.35876,41.49399 -40.02927,42.05626 -22.664,0.55901 -41.48963,-17.362 -42.04864,-40.0282 -0.56444,-22.66399 17.35551,-41.48962 40.02167,-42.05189 z"
         inkscape:connector-curvature="0"
         style="fill:#fafdfe;stroke:#d4e2f4;stroke-width:5.11835384;stroke-miterlimit:4;stroke-dasharray:none;stroke-opacity:1" />
    </g>
    <g
       id="btn_persuade_joint_6"
       inkscape:label="#btn_persuade_joint_7">
      <text
         y="908.70697"
         x="-50.771629"
         style="font-size:62px;font-family:GothamRounded-Medium;fill:#a7a9ac"
         font-size="62"
         id="text383">Frase 6</text>
      <path
         style="fill:#fafdfe;stroke:#d4e2f4;stroke-width:5.11835384;stroke-miterlimit:4;stroke-dasharray:none;stroke-opacity:1"
         inkscape:connector-curvature="0"
         d="m -121.00165,847.5236 c 22.666164,-0.56226 41.496151,17.36309 42.056241,40.02383 0.56119,22.66835 -17.358757,41.49399 -40.029271,42.05626 -22.664,0.55901 -41.48963,-17.362 -42.04864,-40.0282 -0.56444,-22.66399 17.35551,-41.48962 40.02167,-42.05189 z"
         id="path6084" />
    </g>
    <g
       id="btn_persuade_joint_7">
      <text
         y="1025.9629"
         x="-38.438629"
         style="font-size:62px;font-family:GothamRounded-Medium;fill:#a7a9ac"
         font-size="62"
         id="text389">Frase 7</text>
      <path
         style="fill:#fafdfe;stroke:#d4e2f4;stroke-width:5.11835384;stroke-miterlimit:4;stroke-dasharray:none;stroke-opacity:1"
         inkscape:connector-curvature="0"
         d="m -107.73465,968.23759 c 22.666164,-0.56226 41.496154,17.36309 42.056244,40.02381 0.56119,22.6684 -17.35876,41.494 -40.029274,42.0563 -22.664,0.559 -41.48963,-17.362 -42.04864,-40.0282 -0.56444,-22.66401 17.35551,-41.48964 40.02167,-42.05191 z"
         id="path6088" />
    </g>
  </g>
  <metadata
     id="metadata6090">
    <rdf:RDF>
      <cc:Work
         rdf:about="">
        <dc:title />
        <dc:format>image/svg+xml</dc:format>
        <dc:type
           rdf:resource="http://purl.org/dc/dcmitype/StillImage" />
      </cc:Work>
    </rdf:RDF>
  </metadata>
</svg>
